<svg xmlns="http://www.w3.org/2000/svg" xmlns:xlink="http://www.w3.org/1999/xlink" width="500" zoomAndPan="magnify" viewBox="0 0 375 374.999991" height="500" preserveAspectRatio="xMidYMid meet" version="1.0"><defs><g/><clipPath id="0b4a9f6348"><path d="M 62.078125 62.078125 L 312.578125 62.078125 L 312.578125 312.578125 L 62.078125 312.578125 Z M 62.078125 62.078125 " clip-rule="nonzero"/></clipPath></defs><g clip-path="url(#0b4a9f6348)"><path fill="#ffffff" d="M 187.5 62.078125 C 118.238281 62.078125 62.078125 118.238281 62.078125 187.5 C 62.078125 256.761719 118.238281 312.917969 187.5 312.917969 C 256.761719 312.917969 312.917969 256.761719 312.917969 187.5 C 312.917969 118.238281 256.761719 62.078125 187.5 62.078125 Z M 187.5 62.078125 " fill-opacity="1" fill-rule="nonzero"/></g><g fill="#ff7000" fill-opacity="1"><g transform="translate(104.928941, 268.095581)"><g><path d="M 23.28125 -5.25 C 23.28125 -5.25 23.671875 -5 24.453125 -4.5 C 24.503906 -4.46875 24.554688 -4.429688 24.609375 -4.390625 L 25.953125 -3.359375 L 24.640625 -1.53125 L 23.3125 0.3125 L 24.34375 1.046875 L 25.359375 1.796875 L 24.46875 3.03125 L 23.578125 4.25 L 22.640625 3.5625 L 21.71875 2.890625 L 21.65625 2.984375 C 21.5625 3.117188 21.4375 3.40625 21.28125 3.84375 C 21.132812 4.28125 21.035156 4.671875 20.984375 5.015625 C 20.890625 5.753906 20.96875 6.484375 21.21875 7.203125 L 21.328125 7.5625 L 20.21875 9.109375 C 19.457031 10.160156 19.066406 10.675781 19.046875 10.65625 C 18.984375 10.613281 18.832031 10.265625 18.59375 9.609375 C 18.09375 8.253906 17.945312 6.941406 18.15625 5.671875 L 18.21875 5.15625 L 17.984375 5.28125 C 17.515625 5.519531 16.984375 5.71875 16.390625 5.875 C 15.929688 6 15.378906 6.085938 14.734375 6.140625 C 14.097656 6.203125 13.59375 6.195312 13.21875 6.125 C 12.957031 6.09375 12.816406 6.050781 12.796875 6 C 12.773438 5.925781 13.109375 5.414062 13.796875 4.46875 L 14.84375 2.953125 L 15.15625 2.953125 C 16.414062 2.941406 17.566406 2.472656 18.609375 1.546875 C 18.847656 1.328125 18.988281 1.191406 19.03125 1.140625 L 19.109375 1.015625 L 18.765625 0.765625 C 18.523438 0.585938 18.414062 0.484375 18.4375 0.453125 C 18.4375 0.429688 18.734375 0.0234375 19.328125 -0.765625 L 20.1875 -1.953125 L 20.609375 -1.640625 L 21.015625 -1.34375 L 22.1875 -3.015625 L 23.40625 -4.703125 L 23.34375 -4.96875 C 23.3125 -5.15625 23.289062 -5.25 23.28125 -5.25 Z M 12.84375 -12.78125 L 15.84375 -10.625 L 14.671875 -9.015625 L 13.546875 -7.4375 L 13.96875 -7.125 C 14.207031 -6.957031 14.34375 -6.851562 14.375 -6.8125 C 14.414062 -6.769531 14.421875 -6.726562 14.390625 -6.6875 C 14.367188 -6.632812 14.082031 -6.226562 13.53125 -5.46875 L 12.703125 -4.328125 L 12.265625 -4.65625 L 11.8125 -4.921875 L 11.234375 -4.125 C 10.835938 -3.570312 10.414062 -3.023438 9.96875 -2.484375 C 9.582031 -2.023438 9.3125 -1.664062 9.15625 -1.40625 C 9 -1.15625 8.796875 -0.773438 8.546875 -0.265625 C 7.835938 1.179688 7.523438 2.210938 7.609375 2.828125 C 7.597656 2.921875 7.191406 3.53125 6.390625 4.65625 C 5.597656 5.78125 5.1875 6.34375 5.15625 6.34375 C 5.132812 6.351562 5.097656 6.226562 5.046875 5.96875 C 4.703125 4.71875 4.628906 3.484375 4.828125 2.265625 L 4.875 1.828125 L 4.578125 1.953125 C 3.546875 2.472656 2.5625 2.800781 1.625 2.9375 C 0.945312 3.019531 0.335938 3.046875 -0.203125 3.015625 L -0.59375 2.984375 L 0.640625 1.21875 L 1.90625 -0.53125 L 2.203125 -0.59375 C 2.421875 -0.625 2.691406 -0.707031 3.015625 -0.84375 C 4.359375 -1.34375 5.71875 -2.335938 7.09375 -3.828125 C 7.457031 -4.203125 8.5 -5.570312 10.21875 -7.9375 C 11.9375 -10.3125 12.820312 -11.566406 12.875 -11.703125 C 13.007812 -11.984375 13.023438 -12.253906 12.921875 -12.515625 Z M 17.75 -9.15625 L 18.953125 -8.265625 L 20.15625 -7.40625 L 19.8125 -6.921875 L 19.4375 -6.40625 L 20.6875 -5.515625 L 21.9375 -4.609375 L 21.421875 -3.890625 C 20.328125 -2.390625 19.316406 -1.1875 18.390625 -0.28125 C 17.472656 0.613281 16.515625 1.320312 15.515625 1.84375 C 13.546875 2.851562 11.519531 3.203125 9.4375 2.890625 C 8.625 2.765625 8.207031 2.664062 8.1875 2.59375 C 8.1875 2.550781 8.519531 2.078125 9.1875 1.171875 L 10.15625 -0.1875 L 10.53125 -0.140625 C 10.863281 -0.109375 11.085938 -0.09375 11.203125 -0.09375 L 11.5 -0.0625 L 12.109375 -0.90625 C 12.503906 -1.445312 12.71875 -1.785156 12.75 -1.921875 C 12.757812 -2.003906 12.757812 -2.066406 12.75 -2.109375 C 12.738281 -2.148438 12.695312 -2.171875 12.625 -2.171875 C 12.5625 -2.171875 12.425781 -2.160156 12.21875 -2.140625 C 11.894531 -2.117188 11.695312 -2.117188 11.625 -2.140625 C 11.582031 -2.140625 11.578125 -2.160156 11.609375 -2.203125 C 11.640625 -2.296875 12.046875 -2.882812 12.828125 -3.96875 L 14.125 -5.765625 L 14.4375 -5.84375 C 15.332031 -6.050781 16.25 -6.660156 17.1875 -7.671875 C 17.519531 -8.023438 17.726562 -8.289062 17.8125 -8.46875 C 17.90625 -8.644531 17.910156 -8.816406 17.828125 -8.984375 Z M 18.296875 -3.859375 L 17.90625 -4.15625 L 17.515625 -4.4375 L 17.3125 -4.3125 C 16.988281 -4.039062 16.640625 -3.789062 16.265625 -3.5625 C 16.210938 -3.539062 16.207031 -3.503906 16.25 -3.453125 C 16.289062 -3.410156 16.429688 -3.300781 16.671875 -3.125 C 17.046875 -2.851562 17.242188 -2.734375 17.265625 -2.765625 C 17.285156 -2.804688 17.425781 -2.960938 17.6875 -3.234375 C 17.988281 -3.515625 18.164062 -3.691406 18.21875 -3.765625 Z M 14.453125 -1.609375 L 14.96875 -2.375 L 15.5 -3.109375 L 15.25 -3 C 14.976562 -2.851562 14.59375 -2.703125 14.09375 -2.546875 C 13.601562 -2.398438 13.242188 -2.3125 13.015625 -2.28125 C 12.910156 -2.257812 12.851562 -2.238281 12.84375 -2.21875 C 12.832031 -2.207031 13.078125 -2.019531 13.578125 -1.65625 L 14.3125 -1.125 L 14.171875 -0.9375 C 14.117188 -0.769531 14.050781 -0.648438 13.96875 -0.578125 C 13.882812 -0.515625 13.867188 -0.492188 13.921875 -0.515625 C 13.960938 -0.523438 14.148438 -0.609375 14.484375 -0.765625 C 14.859375 -0.941406 15.050781 -1.050781 15.0625 -1.09375 C 15.082031 -1.132812 14.992188 -1.226562 14.796875 -1.375 Z M 25.4375 -2.171875 L 26.296875 -1.5625 L 27.171875 -0.921875 L 26.359375 0.1875 L 25.546875 1.3125 L 24.875 0.828125 L 24.21875 0.34375 L 24.453125 0.03125 C 24.503906 -0.0390625 24.71875 -0.359375 25.09375 -0.921875 C 25.363281 -1.296875 25.515625 -1.535156 25.546875 -1.640625 C 25.585938 -1.742188 25.570312 -1.875 25.5 -2.03125 Z M 9.390625 -11.140625 L 10.265625 -10.515625 L 11.171875 -9.84375 L 8.890625 -6.765625 L 6.65625 -3.65625 L 5.9375 -4.171875 L 5.25 -4.671875 L 7.359375 -7.640625 C 8.765625 -9.628906 9.476562 -10.65625 9.5 -10.71875 C 9.519531 -10.789062 9.5 -10.882812 9.4375 -11 Z M 8.171875 2.875 L 9.25 3.65625 C 9.976562 4.175781 10.335938 4.4375 10.328125 4.4375 C 10.328125 4.445312 9.960938 4.890625 9.234375 5.765625 C 9.015625 6.003906 8.492188 6.628906 7.671875 7.640625 L 7.171875 8.1875 L 6.203125 7.5 L 5.25 6.8125 L 5.375 6.640625 C 5.613281 6.367188 6.109375 5.78125 6.859375 4.875 C 7.609375 3.96875 8.019531 3.46875 8.09375 3.375 C 8.1875 3.238281 8.226562 3.113281 8.21875 3 Z M 10.609375 4.6875 C 10.597656 4.644531 10.617188 4.644531 10.671875 4.6875 C 10.742188 4.726562 11.085938 4.972656 11.703125 5.421875 L 12.859375 6.265625 L 12.71875 6.515625 C 12.5625 6.765625 12.191406 7.316406 11.609375 8.171875 C 10.953125 9.179688 10.554688 9.789062 10.421875 10 L 10.171875 10.375 L 9.15625 9.625 L 8.125 8.890625 L 8.703125 8.0625 C 9.054688 7.507812 9.472656 6.878906 9.953125 6.171875 C 10.328125 5.597656 10.546875 5.242188 10.609375 5.109375 C 10.671875 4.972656 10.671875 4.832031 10.609375 4.6875 Z M 13.1875 6.546875 C 13.144531 6.484375 13.164062 6.484375 13.25 6.546875 C 13.34375 6.617188 13.722656 6.890625 14.390625 7.359375 L 15.671875 8.28125 L 15.59375 8.375 C 15.550781 8.445312 15.132812 9.066406 14.34375 10.234375 C 13.5625 11.398438 13.125 12.046875 13.03125 12.171875 L 12.90625 12.34375 L 11.859375 11.59375 L 10.796875 10.8125 L 10.890625 10.65625 C 10.941406 10.550781 11.347656 9.953125 12.109375 8.859375 C 12.859375 7.796875 13.238281 7.207031 13.25 7.09375 C 13.28125 6.914062 13.257812 6.734375 13.1875 6.546875 Z M 16.0625 8.578125 L 17.34375 9.5 C 18.175781 10.101562 18.585938 10.421875 18.578125 10.453125 C 18.566406 10.503906 18.109375 11.179688 17.203125 12.484375 L 15.796875 14.4375 L 14.71875 13.640625 L 13.625 12.859375 L 13.84375 12.5625 C 14.101562 12.207031 14.53125 11.617188 15.125 10.796875 C 15.601562 10.085938 15.894531 9.65625 16 9.5 C 16.101562 9.351562 16.164062 9.238281 16.1875 9.15625 C 16.195312 9.007812 16.1875 8.867188 16.15625 8.734375 Z M 16.0625 8.578125 "/></g></g></g><g fill="#ff7000" fill-opacity="1"><g transform="translate(126.323727, 283.10987)"><g><path d="M 21.859375 -9.734375 C 21.835938 -9.765625 21.851562 -9.769531 21.90625 -9.75 C 22.039062 -9.707031 22.644531 -9.445312 23.71875 -8.96875 L 25.6875 -8.09375 L 25.078125 -6.734375 L 24.484375 -5.359375 L 25.140625 -5.0625 L 25.75 -4.765625 L 25.09375 -3.28125 L 24.421875 -1.78125 L 23.765625 -2.0625 L 23.125 -2.34375 L 20.71875 3.015625 L 18.34375 8.40625 L 18.09375 8.640625 C 17.71875 9.035156 17.285156 9.3125 16.796875 9.46875 C 16.316406 9.625 15.828125 9.65625 15.328125 9.5625 C 15.109375 9.53125 14.210938 9.164062 12.640625 8.46875 L 10.28125 7.421875 L 11.625 4.390625 L 12.015625 4.5625 C 13.703125 5.300781 14.625 5.664062 14.78125 5.65625 C 14.925781 5.664062 15.078125 5.632812 15.234375 5.5625 C 15.390625 5.5 15.507812 5.421875 15.59375 5.328125 C 15.6875 5.234375 16.398438 3.675781 17.734375 0.65625 L 19.734375 -3.859375 L 16.796875 -5.15625 L 13.890625 -6.4375 L 14.5625 -7.9375 L 15.21875 -9.421875 L 18.125 -8.140625 L 21.0625 -6.84375 L 21.5625 -7.96875 C 21.894531 -8.726562 22.054688 -9.144531 22.046875 -9.21875 C 22.046875 -9.425781 21.984375 -9.597656 21.859375 -9.734375 Z M 13.671875 -12.640625 C 14.109375 -12.484375 14.503906 -12.328125 14.859375 -12.171875 C 15.304688 -11.941406 15.5625 -11.8125 15.625 -11.78125 L 15.84375 -11.6875 L 11.921875 -2.890625 L 7.984375 5.984375 L 4.328125 4.359375 L 0.65625 2.734375 L 0.71875 2.609375 C 0.726562 2.578125 2 -0.328125 4.53125 -6.109375 L 8.34375 -14.71875 L 8.234375 -14.890625 L 8.15625 -15.09375 L 9.6875 -14.40625 L 11.21875 -13.734375 L 10.75 -12.65625 L 10.375 -11.671875 C 10.382812 -11.679688 10.398438 -11.703125 10.421875 -11.734375 C 10.710938 -12.128906 11.0625 -12.429688 11.46875 -12.640625 C 11.875 -12.847656 12.296875 -12.9375 12.734375 -12.90625 C 12.960938 -12.882812 13.273438 -12.796875 13.671875 -12.640625 Z M 9 -4.3125 L 11.625 -10.265625 L 10 -10.984375 L 9.03125 -8.78125 L 8.0625 -6.59375 L 8.65625 -6.34375 L 9.21875 -6.078125 L 8.59375 -4.671875 L 7.984375 -3.296875 L 7.421875 -3.5625 L 6.828125 -3.8125 L 5.78125 -1.453125 L 4.75 0.890625 L 6.375 1.609375 Z M 14.015625 -4.71875 L 15.921875 -3.890625 L 17.796875 -3.0625 L 16.203125 0.546875 L 14.59375 4.171875 L 12.984375 3.46875 C 11.929688 3 11.375 2.765625 11.3125 2.765625 L 11.359375 2.546875 C 11.460938 2.273438 11.925781 1.207031 12.75 -0.65625 C 12.8125 -0.800781 12.894531 -0.988281 13 -1.21875 C 13.675781 -2.75 14.0625 -3.648438 14.15625 -3.921875 C 14.25 -4.203125 14.257812 -4.398438 14.1875 -4.515625 C 14.15625 -4.546875 14.140625 -4.5625 14.140625 -4.5625 Z M 14.015625 -4.71875 "/></g></g></g><g fill="#ff7000" fill-opacity="1"><g transform="translate(150.362289, 293.372124)"><g><path d="M 11.84375 -15.625 C 11.789062 -15.675781 11.8125 -15.691406 11.90625 -15.671875 C 12.050781 -15.648438 12.753906 -15.503906 14.015625 -15.234375 L 16.296875 -14.75 L 16.09375 -13.828125 L 15.890625 -12.859375 L 19.65625 -12.0625 L 23.390625 -11.28125 L 21.484375 -2.234375 L 19.578125 6.765625 L 10.96875 4.953125 L 2.34375 3.125 L 4.203125 -5.65625 C 4.296875 -6.101562 4.425781 -6.726562 4.59375 -7.53125 C 5.351562 -11.132812 5.789062 -13.238281 5.90625 -13.84375 C 6.019531 -14.445312 6.019531 -14.78125 5.90625 -14.84375 C 5.894531 -14.851562 5.878906 -14.863281 5.859375 -14.875 L 5.734375 -15.015625 L 7.75 -14.59375 L 9.71875 -14.171875 L 9.3125 -12.265625 L 9.5 -12.515625 C 9.84375 -13.140625 10.320312 -13.523438 10.9375 -13.671875 C 11.1875 -13.734375 11.390625 -13.757812 11.546875 -13.75 L 11.78125 -13.75 L 11.90625 -14.46875 C 12 -14.894531 12.039062 -15.171875 12.03125 -15.296875 C 12.019531 -15.421875 11.957031 -15.53125 11.84375 -15.625 Z M 17.96875 -3.015625 L 19.171875 -8.765625 L 14.109375 -9.828125 C 10.753906 -10.535156 9.070312 -10.878906 9.0625 -10.859375 C 9.03125 -10.859375 8.957031 -10.566406 8.84375 -9.984375 L 8.65625 -9.109375 L 13.265625 -8.125 L 17.84375 -7.171875 L 17.515625 -5.609375 L 17.1875 -4.09375 L 17.0625 -4.109375 C 17.039062 -4.117188 16.828125 -4.164062 16.421875 -4.25 C 16.023438 -4.332031 15.441406 -4.453125 14.671875 -4.609375 C 13.898438 -4.773438 13.164062 -4.921875 12.46875 -5.046875 L 8.03125 -5.984375 L 7.828125 -5.234375 L 7.65625 -4.4375 L 12.265625 -3.421875 L 16.828125 -2.46875 L 16.515625 -0.90625 L 16.1875 0.65625 L 11.609375 -0.296875 L 7 -1.28125 L 6.796875 -0.359375 L 6.59375 0.59375 L 11.671875 1.671875 L 16.75 2.734375 Z M 17.96875 -3.015625 "/></g></g></g><g fill="#ff7000" fill-opacity="1"><g transform="translate(176.097825, 298.438106)"><g><path d="M 13.09375 -17.625 C 12.9375 -17.75 12.890625 -17.816406 12.953125 -17.828125 C 13.023438 -17.835938 13.648438 -17.84375 14.828125 -17.84375 C 16.015625 -17.84375 16.609375 -17.832031 16.609375 -17.8125 C 16.617188 -17.800781 16.644531 -17.445312 16.6875 -16.75 C 16.71875 -16.039062 16.738281 -15.628906 16.75 -15.515625 L 16.78125 -15.34375 L 21.28125 -15.34375 L 21.28125 -7.59375 C 21.28125 -2.425781 21.257812 0.226562 21.21875 0.375 C 21.144531 0.695312 20.988281 1.015625 20.75 1.328125 C 20.519531 1.640625 20.269531 1.863281 20 2 C 19.738281 2.132812 19.488281 2.21875 19.25 2.25 C 19.019531 2.28125 18.425781 2.296875 17.46875 2.296875 L 15.75 2.296875 L 15.75 -0.90625 L 16.484375 -0.90625 C 16.867188 -0.90625 17.125 -0.921875 17.25 -0.953125 C 17.375 -0.992188 17.488281 -1.070312 17.59375 -1.1875 L 17.671875 -1.34375 L 17.6875 -6.8125 L 17.6875 -12.28125 L 16.8125 -12.28125 L 16.8125 -11.484375 C 16.8125 -9.648438 16.707031 -7.988281 16.5 -6.5 C 16.25 -4.75 15.835938 -3.1875 15.265625 -1.8125 C 14.691406 -0.4375 13.972656 0.671875 13.109375 1.515625 C 12.640625 2.003906 12.191406 2.351562 11.765625 2.5625 L 11.625 2.625 L 11.625 -1.796875 L 11.828125 -2.09375 C 12.359375 -2.875 12.753906 -3.925781 13.015625 -5.25 C 13.285156 -6.570312 13.4375 -8.320312 13.46875 -10.5 L 13.484375 -12.28125 L 11.671875 -12.28125 L 11.671875 -15.34375 L 13.46875 -15.34375 L 13.4375 -16.15625 C 13.4375 -16.65625 13.414062 -16.988281 13.375 -17.15625 C 13.332031 -17.332031 13.238281 -17.488281 13.09375 -17.625 Z M 1.75 -17.15625 L 3.5 -17.15625 C 4.644531 -17.15625 5.257812 -17.148438 5.34375 -17.140625 C 5.375 -17.117188 5.394531 -17.070312 5.40625 -17 C 5.414062 -16.9375 5.421875 -16.726562 5.421875 -16.375 L 5.46875 -15.71875 C 5.46875 -15.738281 5.476562 -15.769531 5.5 -15.8125 C 5.5625 -16.039062 5.691406 -16.265625 5.890625 -16.484375 C 6.097656 -16.703125 6.320312 -16.867188 6.5625 -16.984375 C 6.84375 -17.097656 7.753906 -17.15625 9.296875 -17.15625 L 11.03125 -17.140625 L 11.0625 -9.234375 L 11.09375 -1.34375 L 11.21875 -1.34375 L 11.296875 -1.3125 L 11.296875 1.703125 L 10.9375 1.71875 C 10.695312 1.738281 9.894531 1.765625 8.53125 1.796875 C 7.164062 1.828125 5.976562 1.851562 4.96875 1.875 C 4.03125 1.90625 3.164062 1.921875 2.375 1.921875 L 1.34375 1.921875 L 1.34375 0.296875 L 1.359375 -1.3125 L 1.75 -1.3125 L 2.15625 -1.34375 L 2.171875 -1.5625 C 2.191406 -1.78125 2.203125 -4.359375 2.203125 -9.296875 C 2.203125 -14.253906 2.175781 -16.773438 2.125 -16.859375 C 2.070312 -16.960938 1.992188 -17.03125 1.890625 -17.0625 Z M 5.421875 -13.890625 L 5.421875 -11.953125 L 7.1875 -11.953125 L 7.1875 -9.015625 L 5.421875 -9.015625 L 5.421875 -6.953125 L 5.921875 -6.984375 C 6.210938 -6.984375 6.507812 -6.984375 6.8125 -6.984375 L 7.1875 -6.984375 L 7.1875 -4.078125 L 5.421875 -4.078125 L 5.421875 -1.3125 L 6.578125 -1.3125 C 7.335938 -1.332031 7.722656 -1.34375 7.734375 -1.34375 C 7.742188 -1.34375 7.75 -3.429688 7.75 -7.609375 C 7.75 -11.785156 7.742188 -13.875 7.734375 -13.875 C 7.722656 -13.882812 7.457031 -13.894531 6.9375 -13.90625 C 6.425781 -13.914062 6.046875 -13.921875 5.796875 -13.921875 Z M 5.421875 -13.890625 "/></g></g></g><g fill="#ff7000" fill-opacity="1"><g transform="translate(202.13919, 298.088513)"><g><path d="M 9.953125 -20.453125 C 9.953125 -20.453125 10.019531 -20.46875 10.15625 -20.5 C 10.300781 -20.539062 10.507812 -20.585938 10.78125 -20.640625 C 11.050781 -20.703125 11.34375 -20.765625 11.65625 -20.828125 L 13.453125 -21.203125 L 13.578125 -20.59375 L 13.71875 -19.96875 L 15.46875 -20.34375 L 17.234375 -20.71875 L 17.578125 -19.109375 L 17.921875 -17.46875 L 18.234375 -17.53125 L 18.5625 -17.609375 L 18.8125 -16.40625 L 19.0625 -15.21875 L 18.734375 -15.140625 L 18.421875 -15.078125 L 18.71875 -13.515625 L 19.0625 -11.921875 L 17.296875 -11.515625 L 15.578125 -11.140625 L 15.65625 -10.8125 L 15.71875 -10.5 L 17.390625 -10.859375 L 19.109375 -11.21875 L 19.34375 -10.09375 L 19.59375 -8.9375 L 17.875 -8.578125 L 16.203125 -8.21875 L 16.265625 -7.90625 L 16.328125 -7.625 L 18.15625 -8 L 19.984375 -8.390625 L 20.234375 -7.203125 L 20.5 -6 L 18.671875 -5.609375 L 16.828125 -5.21875 L 16.984375 -4.5 L 18.984375 -4.921875 L 21 -5.328125 L 21.34375 -3.796875 L 21.671875 -2.234375 L 17.0625 -1.265625 C 14.007812 -0.648438 12.328125 -0.3125 12.015625 -0.25 C 10.804688 -0.125 9.734375 -0.257812 8.796875 -0.65625 L 8.421875 -0.765625 L 8.171875 -0.4375 C 7.585938 0.238281 6.972656 0.800781 6.328125 1.25 L 6.03125 1.46875 L 5.625 -0.390625 L 5.25 -2.21875 L 5.5 -2.421875 C 5.65625 -2.585938 5.785156 -2.726562 5.890625 -2.84375 L 6.03125 -3.03125 L 5.859375 -3.3125 C 5.566406 -3.78125 5.226562 -4.476562 4.84375 -5.40625 C 4.46875 -6.332031 4.210938 -7.101562 4.078125 -7.71875 L 4.03125 -7.9375 L 5.203125 -8.1875 L 6.34375 -8.421875 L 6.4375 -8.078125 C 6.613281 -7.503906 6.796875 -6.972656 6.984375 -6.484375 C 7.109375 -6.171875 7.1875 -6.019531 7.21875 -6.03125 C 7.21875 -6.03125 7.21875 -6.054688 7.21875 -6.109375 C 7.289062 -6.578125 7.226562 -7.414062 7.03125 -8.625 L 6.90625 -9.3125 L 5.515625 -9.015625 L 4.109375 -8.71875 L 3.796875 -10.1875 L 3.484375 -11.671875 L 3.71875 -12.046875 C 4.226562 -12.941406 4.648438 -13.890625 4.984375 -14.890625 L 5.109375 -15.34375 L 4.859375 -15.296875 C 4.796875 -15.296875 4.488281 -15.234375 3.9375 -15.109375 L 3.265625 -14.96875 L 2.984375 -16.328125 L 2.6875 -17.6875 L 5.234375 -18.234375 L 7.75 -18.75 L 8.0625 -17.40625 L 8.34375 -16.046875 L 8.28125 -15.6875 C 8.25 -15.257812 8.140625 -14.765625 7.953125 -14.203125 C 7.773438 -13.640625 7.5625 -13.15625 7.3125 -12.75 C 7.15625 -12.488281 7.117188 -12.347656 7.203125 -12.328125 C 7.265625 -12.304688 7.519531 -12.34375 7.96875 -12.4375 C 8.445312 -12.539062 8.75 -12.597656 8.875 -12.609375 L 9.09375 -12.625 L 9.53125 -10.40625 C 9.84375 -8.96875 10.023438 -8.046875 10.078125 -7.640625 C 10.234375 -6.328125 10.195312 -5.144531 9.96875 -4.09375 C 9.914062 -3.8125 9.90625 -3.660156 9.9375 -3.640625 C 10 -3.609375 10.148438 -3.570312 10.390625 -3.53125 C 10.640625 -3.488281 10.851562 -3.460938 11.03125 -3.453125 C 11.625 -3.441406 12.316406 -3.519531 13.109375 -3.6875 L 13.953125 -3.859375 L 13.796875 -4.578125 L 12.515625 -4.3125 L 11.25 -4.046875 L 11.21875 -4.171875 C 11.1875 -4.210938 11.09375 -4.601562 10.9375 -5.34375 L 10.734375 -6.4375 L 12.015625 -6.703125 L 13.296875 -6.984375 L 13.234375 -7.265625 L 13.171875 -7.578125 L 11.984375 -7.328125 L 10.765625 -7.078125 L 10.515625 -8.234375 L 10.28125 -9.359375 L 11.5 -9.609375 L 12.6875 -9.859375 L 12.625 -10.171875 L 12.546875 -10.5 L 11.359375 -10.25 L 10.140625 -10 L 9.890625 -11.234375 L 9.625 -12.4375 L 10.84375 -12.6875 L 12.03125 -12.9375 L 11.875 -13.6875 L 10.546875 -13.40625 L 9.203125 -13.125 L 8.953125 -14.3125 L 8.703125 -15.515625 L 10.046875 -15.796875 L 11.375 -16.078125 L 11.21875 -16.828125 L 10.03125 -16.578125 L 8.8125 -16.328125 L 8.546875 -17.59375 L 8.28125 -18.828125 L 9.5 -19.078125 L 10.6875 -19.328125 L 10.609375 -19.671875 C 10.515625 -20.128906 10.296875 -20.390625 9.953125 -20.453125 Z M 15.015625 -17.25 L 14.9375 -17.625 L 14.5625 -17.546875 L 14.25 -17.46875 L 14.40625 -16.71875 L 14.71875 -16.796875 L 15.09375 -16.875 Z M 15.671875 -14.125 L 15.59375 -14.484375 L 15.265625 -14.40625 C 15.054688 -14.363281 14.945312 -14.332031 14.9375 -14.3125 C 14.925781 -14.289062 14.945312 -14.160156 15 -13.921875 L 15.0625 -13.625 L 15.375 -13.703125 L 15.75 -13.78125 Z M -1.25 -18 L 0.359375 -18.34375 C 1.429688 -18.570312 2.003906 -18.679688 2.078125 -18.671875 C 2.128906 -18.660156 2.164062 -18.640625 2.1875 -18.609375 C 2.21875 -18.585938 2.257812 -18.457031 2.3125 -18.21875 C 2.707031 -16.238281 2.835938 -14.445312 2.703125 -12.84375 C 2.679688 -12.71875 2.738281 -12.3125 2.875 -11.625 C 3.019531 -10.945312 3.445312 -8.925781 4.15625 -5.5625 L 5.640625 1.390625 L 4.046875 1.71875 L 2.484375 2.0625 L 1.46875 -2.734375 L 0.4375 -7.5625 L 0.09375 -7.015625 L -0.25 -6.5 L -0.734375 -8.8125 L -1.21875 -11.09375 L -1.046875 -11.46875 C -0.523438 -12.78125 -0.378906 -14.535156 -0.609375 -16.734375 C -0.648438 -17.140625 -0.703125 -17.414062 -0.765625 -17.5625 C -0.835938 -17.71875 -0.957031 -17.835938 -1.125 -17.921875 Z M -1.25 -18 "/></g></g></g><g fill="#ff7000" fill-opacity="1"><g transform="translate(227.636325, 292.338532)"><g><path d="M 0.28125 -19.5625 C 0.21875 -19.582031 0.222656 -19.609375 0.296875 -19.640625 C 0.410156 -19.710938 1.007812 -19.988281 2.09375 -20.46875 L 4.03125 -21.328125 L 4.125 -21.203125 C 4.175781 -21.109375 4.269531 -20.894531 4.40625 -20.5625 L 4.640625 -20.046875 L 11.328125 -23.015625 L 13.21875 -18.734375 C 13.40625 -18.296875 13.601562 -17.84375 13.8125 -17.375 C 14.019531 -16.90625 14.203125 -16.492188 14.359375 -16.140625 C 14.515625 -15.796875 14.65625 -15.476562 14.78125 -15.1875 C 14.90625 -14.90625 15.003906 -14.675781 15.078125 -14.5 C 15.160156 -14.320312 15.207031 -14.226562 15.21875 -14.21875 L 15.3125 -14.015625 L 16.09375 -14.359375 L 16.890625 -14.703125 L 17.5 -13.328125 L 18.109375 -11.9375 L 17.6875 -11.765625 C 17.289062 -11.585938 17.019531 -11.460938 16.875 -11.390625 L 16.53125 -11.25 L 16.671875 -10.921875 C 16.722656 -10.816406 16.972656 -10.226562 17.421875 -9.15625 C 17.785156 -8.332031 18.003906 -7.804688 18.078125 -7.578125 C 18.148438 -7.359375 18.164062 -7.109375 18.125 -6.828125 C 18.113281 -6.523438 18.03125 -6.21875 17.875 -5.90625 C 17.71875 -5.59375 17.546875 -5.335938 17.359375 -5.140625 C 17.203125 -5.015625 17.003906 -4.878906 16.765625 -4.734375 C 16.503906 -4.566406 16.296875 -4.4375 16.140625 -4.34375 C 15.617188 -4.007812 14.632812 -3.53125 13.1875 -2.90625 L 12.25 -2.53125 L 11.640625 -3.875 C 11.234375 -4.8125 11.039062 -5.28125 11.0625 -5.28125 C 11.070312 -5.300781 11.535156 -5.554688 12.453125 -6.046875 C 13.234375 -6.453125 13.707031 -6.710938 13.875 -6.828125 C 14.039062 -6.941406 14.148438 -7.09375 14.203125 -7.28125 C 14.191406 -7.414062 14.070312 -7.75 13.84375 -8.28125 C 13.632812 -8.8125 13.515625 -9.070312 13.484375 -9.0625 C 13.460938 -9.050781 13.382812 -8.894531 13.25 -8.59375 C 12.832031 -7.8125 12.320312 -7.046875 11.71875 -6.296875 C 10.71875 -5.054688 9.535156 -3.816406 8.171875 -2.578125 C 6.804688 -1.335938 5.425781 -0.257812 4.03125 0.65625 C 3.039062 1.289062 2.421875 1.660156 2.171875 1.765625 C 2.140625 1.773438 1.894531 1.269531 1.4375 0.25 L 0.765625 -1.28125 L 1.390625 -1.609375 C 3.847656 -2.921875 5.992188 -4.523438 7.828125 -6.421875 C 8.566406 -7.222656 8.925781 -7.644531 8.90625 -7.6875 C 8.90625 -7.6875 7.445312 -7.039062 4.53125 -5.75 L 0.140625 -3.796875 L -0.46875 -5.1875 L -1.09375 -6.546875 L -0.34375 -6.875 L 0.390625 -7.203125 L -1.625 -11.640625 L -3.578125 -16.0625 L -3.703125 -16.125 C -3.816406 -16.15625 -3.898438 -16.175781 -3.953125 -16.1875 C -4.035156 -16.164062 -3.460938 -16.425781 -2.234375 -16.96875 L -0.390625 -17.828125 L -0.046875 -17 C 0.015625 -16.84375 0.0703125 -16.703125 0.125 -16.578125 C 0.1875 -16.453125 0.226562 -16.351562 0.25 -16.28125 C 0.28125 -16.21875 0.296875 -16.1875 0.296875 -16.1875 C 0.304688 -16.195312 0.3125 -16.28125 0.3125 -16.4375 C 0.257812 -16.6875 0.289062 -16.984375 0.40625 -17.328125 C 0.519531 -17.679688 0.675781 -17.972656 0.875 -18.203125 L 1.078125 -18.4375 L 0.875 -18.921875 C 0.75 -19.191406 0.65625 -19.363281 0.59375 -19.4375 C 0.53125 -19.507812 0.425781 -19.550781 0.28125 -19.5625 Z M 9.1875 -18.90625 L 5 -17.046875 L 0.78125 -15.1875 L 0.96875 -14.75 L 1.15625 -14.328125 L 4.984375 -16.015625 L 8.8125 -17.71875 L 9.265625 -16.703125 L 9.703125 -15.6875 L 5.875 -13.984375 L 2.046875 -12.296875 L 2.234375 -11.875 L 2.4375 -11.4375 L 6.265625 -13.125 L 10.09375 -14.828125 L 10.53125 -13.828125 L 10.96875 -12.859375 L 7.140625 -11.15625 L 3.3125 -9.46875 L 3.46875 -9.078125 L 3.671875 -8.65625 L 7.859375 -10.5 L 12.046875 -12.359375 L 11.921875 -12.703125 C 11.859375 -12.898438 11.375 -13.992188 10.46875 -15.984375 Z M 9.1875 -18.90625 "/></g></g></g><g fill="#ff7000" fill-opacity="1"><g transform="translate(251.391804, 281.437026)"><g><path d="M -2.28125 -20.171875 C -2.34375 -20.179688 -2.332031 -20.210938 -2.25 -20.265625 C -2.125 -20.367188 -1.550781 -20.789062 -0.53125 -21.53125 L 1.34375 -22.890625 L 1.75 -22.328125 L 2.140625 -21.78125 L 4.78125 -23.6875 L 7.4375 -25.59375 L 9.421875 -22.859375 C 10.722656 -21.054688 11.347656 -20.140625 11.296875 -20.109375 C 11.285156 -20.097656 11.222656 -20.050781 11.109375 -19.96875 C 11.003906 -19.894531 10.847656 -19.785156 10.640625 -19.640625 C 10.441406 -19.492188 10.203125 -19.320312 9.921875 -19.125 C 9.648438 -18.925781 9.332031 -18.691406 8.96875 -18.421875 C 8.601562 -18.160156 8.226562 -17.890625 7.84375 -17.609375 C 7.46875 -17.335938 7.039062 -17.03125 6.5625 -16.6875 C 6.09375 -16.351562 5.632812 -16.023438 5.1875 -15.703125 C 1.175781 -12.804688 -0.863281 -11.304688 -0.9375 -11.203125 L -1.0625 -11.09375 L 1.671875 -7.296875 C 3.140625 -5.265625 3.972656 -4.085938 4.171875 -3.765625 C 4.378906 -3.441406 4.523438 -3.128906 4.609375 -2.828125 C 4.703125 -2.367188 4.695312 -1.882812 4.59375 -1.375 C 4.488281 -0.875 4.289062 -0.421875 4 -0.015625 C 3.90625 0.0664062 3.640625 0.289062 3.203125 0.65625 C 2.773438 1.03125 2.507812 1.226562 2.40625 1.25 L 2.3125 1.296875 L 1.375 0 C 0.757812 -0.863281 0.460938 -1.3125 0.484375 -1.34375 C 0.703125 -1.613281 0.835938 -1.84375 0.890625 -2.03125 C 0.953125 -2.21875 0.957031 -2.425781 0.90625 -2.65625 L 0.828125 -2.96875 L -3.28125 -8.65625 C -5.269531 -11.414062 -6.457031 -13.050781 -6.84375 -13.5625 C -7.226562 -14.082031 -7.457031 -14.363281 -7.53125 -14.40625 C -7.644531 -14.457031 -7.753906 -14.472656 -7.859375 -14.453125 C -7.941406 -14.441406 -7.929688 -14.472656 -7.828125 -14.546875 C -7.734375 -14.640625 -7.300781 -14.960938 -6.53125 -15.515625 L -5.03125 -16.59375 L -4.4375 -15.78125 L -3.84375 -14.953125 L -3.9375 -15.296875 C -4.1875 -16.046875 -4.078125 -16.773438 -3.609375 -17.484375 C -3.484375 -17.628906 -3.046875 -17.984375 -2.296875 -18.546875 L -1.203125 -19.359375 L -1.484375 -19.75 C -1.628906 -19.96875 -1.75 -20.097656 -1.84375 -20.140625 C -1.9375 -20.191406 -2.082031 -20.203125 -2.28125 -20.171875 Z M 6.421875 -20.75 L 5.90625 -21.4375 L 1.25 -18.0625 C -1.851562 -15.851562 -3.429688 -14.71875 -3.484375 -14.65625 C -3.515625 -14.601562 -3.515625 -14.546875 -3.484375 -14.484375 C -3.453125 -14.421875 -3.304688 -14.210938 -3.046875 -13.859375 L -2.546875 -13.171875 L 2.1875 -16.59375 L 6.953125 -20.03125 Z M 3.5625 -13.90625 L 5.421875 -15.25 L 7.265625 -16.578125 L 7.546875 -16.1875 L 7.84375 -15.78125 L 10.265625 -17.53125 L 12.71875 -19.3125 L 13.5625 -18.140625 L 14.4375 -16.921875 L 6.53125 -11.203125 L 6.65625 -11 C 6.726562 -10.851562 6.796875 -10.734375 6.859375 -10.640625 L 7 -10.453125 L 10.484375 -12.96875 L 13.984375 -15.484375 L 14.34375 -15.03125 C 15.988281 -12.738281 16.859375 -11.503906 16.953125 -11.328125 C 17.128906 -10.878906 17.164062 -10.40625 17.0625 -9.90625 C 16.96875 -9.40625 16.757812 -9 16.4375 -8.6875 C 16.300781 -8.550781 15.554688 -7.992188 14.203125 -7.015625 L 12.15625 -5.546875 L 11.296875 -6.75 L 10.40625 -7.96875 L 11.859375 -9.015625 C 12.660156 -9.585938 13.128906 -9.9375 13.265625 -10.0625 C 13.410156 -10.195312 13.476562 -10.335938 13.46875 -10.484375 C 13.5 -10.679688 13.394531 -10.945312 13.15625 -11.28125 L 12.890625 -11.640625 L 7.921875 -8.046875 L 8.03125 -7.703125 C 8.070312 -7.441406 8.109375 -7.132812 8.140625 -6.78125 C 8.222656 -5.945312 8.15625 -5.09375 7.9375 -4.21875 C 7.71875 -3.351562 7.351562 -2.5625 6.84375 -1.84375 L 6.5625 -1.4375 L 5.515625 -2.875 L 4.5 -4.28125 L 4.6875 -4.671875 C 5.050781 -5.328125 5.148438 -6.066406 4.984375 -6.890625 C 4.878906 -7.503906 4.582031 -8.273438 4.09375 -9.203125 L 4 -9.375 L 3.015625 -8.671875 L 2.03125 -7.953125 L 1.15625 -9.171875 L 0.3125 -10.34375 L 2.40625 -11.859375 L 4.46875 -13.34375 L 4.296875 -13.5625 C 4.128906 -13.789062 3.929688 -13.898438 3.703125 -13.890625 Z M 3.5625 -13.90625 "/></g></g></g><g fill="#ff7000" fill-opacity="1"><g transform="translate(129.696514, 113.739098)"><g><path d="M -5.109375 -11.4375 C -5.128906 -11.457031 -5.09375 -11.492188 -5 -11.546875 C -4.90625 -11.597656 -4.691406 -11.722656 -4.359375 -11.921875 L -3.046875 -12.65625 L -0.78125 -13.90625 L 3.671875 -16.375 L 5.078125 -13.859375 L -0.140625 -10.953125 L 0.53125 -9.734375 L 3.21875 -4.875 L 5.1875 -1.28125 L 3.5625 -0.359375 L 1.9375 0.546875 L -1.328125 -5.328125 C -3.492188 -9.242188 -4.609375 -11.238281 -4.671875 -11.3125 C -4.847656 -11.40625 -4.992188 -11.445312 -5.109375 -11.4375 Z M 1.671875 -8.703125 L 6.09375 -11.15625 L 7.46875 -8.671875 L 3.046875 -6.21875 Z M 1.671875 -8.703125 "/></g></g></g><g fill="#ff7000" fill-opacity="1"><g transform="translate(145.385288, 105.708581)"><g><path d="M -3.515625 -12.078125 L 0.40625 -13.59375 L 5.40625 -0.578125 L 1.890625 0.78125 L -2.953125 -11.8125 L -3.0625 -11.9375 C -3.132812 -12 -3.226562 -12.039062 -3.34375 -12.0625 Z M -3.515625 -12.078125 "/></g></g></g><g fill="#ff7000" fill-opacity="1"><g transform="translate(157.024093, 101.476838)"><g><path d="M -2.484375 -12.28125 L 8.140625 -14.765625 L 8.78125 -12 L -1.84375 -9.515625 Z M 1.546875 -9.75 L 5.453125 -10.65625 L 7.84375 -0.375 L 4.1875 0.46875 L 3.046875 -4.4375 C 2.660156 -6.125 2.367188 -7.390625 2.171875 -8.234375 C 1.972656 -9.085938 1.863281 -9.523438 1.84375 -9.546875 C 1.820312 -9.585938 1.765625 -9.628906 1.671875 -9.671875 Z M 1.546875 -9.75 "/></g></g></g><g fill="#ff7000" fill-opacity="1"><g transform="translate(173.900894, 97.922954)"><g><path d="M 0.359375 -12.53125 C 0.472656 -12.53125 0.617188 -12.546875 0.796875 -12.578125 C 0.941406 -12.585938 1.125 -12.601562 1.34375 -12.625 C 1.570312 -12.644531 1.832031 -12.660156 2.125 -12.671875 L 4.453125 -12.8125 L 5.234375 1.109375 L 1.46875 1.328125 L 1.09375 -5.421875 L 1.03125 -6.515625 C 0.945312 -7.972656 0.878906 -9.125 0.828125 -9.96875 C 0.785156 -10.8125 0.75 -11.359375 0.71875 -11.609375 C 0.6875 -12.085938 0.632812 -12.359375 0.5625 -12.421875 C 0.53125 -12.429688 0.515625 -12.4375 0.515625 -12.4375 C 0.441406 -12.488281 0.390625 -12.519531 0.359375 -12.53125 Z M 8.125 -13.015625 L 12.234375 -13.25 L 13.015625 0.671875 L 9.3125 0.890625 L 8.9375 -5.875 C 8.675781 -10.394531 8.523438 -12.691406 8.484375 -12.765625 C 8.453125 -12.804688 8.421875 -12.84375 8.390625 -12.875 C 8.359375 -12.914062 8.316406 -12.941406 8.265625 -12.953125 Z M 5.171875 -7.609375 L 8.40625 -7.796875 L 8.5625 -4.984375 L 5.328125 -4.796875 Z M 5.171875 -7.609375 "/></g></g></g><g fill="#ff7000" fill-opacity="1"><g transform="translate(193.753162, 97.285584)"><g><path d="M 8.34375 -11.65625 C 8.445312 -11.65625 8.535156 -11.65625 8.609375 -11.65625 C 8.660156 -11.644531 8.710938 -11.632812 8.765625 -11.625 L 8.84375 -11.640625 L 8.65625 -10.21875 C 8.519531 -9.25 8.429688 -8.765625 8.390625 -8.765625 C 8.191406 -8.796875 7.90625 -8.75 7.53125 -8.625 C 6.363281 -8.25 5.664062 -6.941406 5.4375 -4.703125 C 5.394531 -4.328125 5.378906 -3.910156 5.390625 -3.453125 C 5.398438 -2.992188 5.460938 -2.546875 5.578125 -2.109375 C 5.691406 -1.671875 5.878906 -1.28125 6.140625 -0.9375 C 6.398438 -0.59375 6.75 -0.359375 7.1875 -0.234375 L 7.328125 -0.203125 L 7.15625 1.15625 L 6.984375 2.53125 L 6.796875 2.515625 C 6.328125 2.453125 5.851562 2.332031 5.375 2.15625 C 4.90625 1.976562 4.472656 1.753906 4.078125 1.484375 C 3.679688 1.210938 3.320312 0.890625 3 0.515625 C 2.675781 0.148438 2.40625 -0.25 2.1875 -0.6875 C 1.675781 -1.695312 1.425781 -2.910156 1.4375 -4.328125 C 1.4375 -4.429688 1.445312 -4.578125 1.46875 -4.765625 C 1.488281 -4.960938 1.519531 -5.207031 1.5625 -5.5 C 1.59375 -5.769531 1.625 -6 1.65625 -6.1875 C 1.695312 -6.382812 1.734375 -6.546875 1.765625 -6.671875 C 1.910156 -7.253906 2.125 -7.804688 2.40625 -8.328125 C 2.6875 -8.847656 3.03125 -9.328125 3.4375 -9.765625 C 3.84375 -10.203125 4.300781 -10.566406 4.8125 -10.859375 C 5.320312 -11.160156 5.875 -11.375 6.46875 -11.5 C 7.050781 -11.644531 7.675781 -11.695312 8.34375 -11.65625 Z M 9.078125 -10.15625 L 9.265625 -11.578125 L 9.4375 -11.5625 C 9.925781 -11.488281 10.40625 -11.351562 10.875 -11.15625 C 11.34375 -10.957031 11.773438 -10.710938 12.171875 -10.421875 C 12.566406 -10.128906 12.925781 -9.789062 13.25 -9.40625 C 13.582031 -9.019531 13.859375 -8.609375 14.078125 -8.171875 C 14.578125 -7.109375 14.832031 -5.96875 14.84375 -4.75 C 14.851562 -4.632812 14.847656 -4.484375 14.828125 -4.296875 C 14.804688 -4.109375 14.78125 -3.894531 14.75 -3.65625 C 14.632812 -2.945312 14.457031 -2.257812 14.21875 -1.59375 C 13.988281 -0.925781 13.644531 -0.304688 13.1875 0.265625 C 12.550781 1.066406 11.804688 1.664062 10.953125 2.0625 C 10.109375 2.457031 9.15625 2.648438 8.09375 2.640625 C 8.007812 2.640625 7.925781 2.632812 7.84375 2.625 C 7.769531 2.625 7.710938 2.617188 7.671875 2.609375 L 7.515625 2.59375 L 7.59375 1.890625 C 7.632812 1.429688 7.691406 0.972656 7.765625 0.515625 L 7.875 -0.140625 L 8.125 -0.15625 C 8.582031 -0.238281 8.972656 -0.398438 9.296875 -0.640625 C 9.617188 -0.890625 9.878906 -1.1875 10.078125 -1.53125 C 10.285156 -1.875 10.441406 -2.253906 10.546875 -2.671875 C 10.660156 -3.085938 10.753906 -3.507812 10.828125 -3.9375 C 10.984375 -4.84375 10.992188 -5.691406 10.859375 -6.484375 C 10.628906 -7.691406 10.078125 -8.425781 9.203125 -8.6875 L 8.90625 -8.78125 Z M 9.078125 -10.15625 "/></g></g></g><g fill="#ff7000" fill-opacity="1"><g transform="translate(214.00829, 100.500849)"><g><path d="M 4.46875 -11.71875 L 8.828125 -10.296875 L 7.296875 -5.5625 L 5.765625 -0.90625 L 5.796875 -0.609375 C 5.785156 -0.0351562 6.082031 0.46875 6.6875 0.90625 C 6.832031 0.96875 6.894531 1.03125 6.875 1.09375 C 6.863281 1.113281 6.820312 1.226562 6.75 1.4375 C 6.6875 1.65625 6.582031 1.960938 6.4375 2.359375 L 6.046875 3.578125 C 5.554688 3.410156 5.070312 3.222656 4.59375 3.015625 C 4.113281 2.816406 3.691406 2.515625 3.328125 2.109375 C 2.878906 1.691406 2.535156 1.203125 2.296875 0.640625 C 2.066406 0.0859375 1.953125 -0.492188 1.953125 -1.109375 C 1.960938 -1.273438 1.984375 -1.445312 2.015625 -1.625 C 2.046875 -1.8125 2.082031 -2.007812 2.125 -2.21875 C 2.175781 -2.40625 2.3125 -2.84375 2.53125 -3.53125 C 2.757812 -4.226562 3.0625 -5.160156 3.4375 -6.328125 L 3.71875 -7.1875 C 4.039062 -8.132812 4.289062 -8.890625 4.46875 -9.453125 C 4.65625 -10.015625 4.769531 -10.378906 4.8125 -10.546875 C 4.90625 -10.867188 4.914062 -11.097656 4.84375 -11.234375 C 4.769531 -11.390625 4.691406 -11.507812 4.609375 -11.59375 Z M 11.75 -9.265625 C 11.695312 -9.296875 11.710938 -9.316406 11.796875 -9.328125 L 13.90625 -8.625 L 16.1875 -7.875 L 14.6875 -3.28125 C 14.195312 -1.8125 13.816406 -0.679688 13.546875 0.109375 C 13.273438 0.898438 13.117188 1.347656 13.078125 1.453125 C 12.804688 2.046875 12.457031 2.546875 12.03125 2.953125 C 11.601562 3.359375 11.128906 3.660156 10.609375 3.859375 C 10.085938 4.066406 9.53125 4.175781 8.9375 4.1875 C 8.34375 4.207031 7.75 4.117188 7.15625 3.921875 L 6.53125 3.71875 L 6.984375 2.40625 L 7.390625 1.140625 L 7.546875 1.171875 C 7.867188 1.210938 8.203125 1.140625 8.546875 0.953125 C 8.898438 0.773438 9.1875 0.523438 9.40625 0.203125 C 9.488281 0.0664062 9.972656 -1.347656 10.859375 -4.046875 C 11.765625 -6.785156 12.210938 -8.21875 12.203125 -8.34375 C 12.210938 -8.707031 12.0625 -9.015625 11.75 -9.265625 Z M 11.75 -9.265625 "/></g></g></g><g fill="#ff7000" fill-opacity="1"><g transform="translate(232.611212, 107.151401)"><g><path d="M 7.734375 -3.359375 L 8.671875 -2.859375 C 8.953125 -2.703125 9.171875 -2.582031 9.328125 -2.5 C 9.492188 -2.414062 9.613281 -2.363281 9.6875 -2.34375 C 9.8125 -2.289062 9.992188 -2.257812 10.234375 -2.25 C 10.523438 -2.238281 10.785156 -2.328125 11.015625 -2.515625 C 11.359375 -2.765625 11.578125 -3.109375 11.671875 -3.546875 C 11.796875 -3.992188 11.71875 -4.375 11.4375 -4.6875 L 11.359375 -4.890625 L 10.265625 -5.484375 L 9.5625 -5.875 L 10.90625 -8.34375 C 11.457031 -8.039062 11.898438 -7.796875 12.234375 -7.609375 C 12.578125 -7.429688 12.847656 -7.285156 13.046875 -7.171875 C 13.242188 -7.066406 13.382812 -6.988281 13.46875 -6.9375 C 13.550781 -6.882812 13.609375 -6.847656 13.640625 -6.828125 C 14.515625 -6.242188 15.101562 -5.578125 15.40625 -4.828125 C 15.71875 -4.085938 15.710938 -3.203125 15.390625 -2.171875 C 15.054688 -1.210938 14.550781 -0.523438 13.875 -0.109375 C 13.207031 0.296875 12.46875 0.359375 11.65625 0.078125 L 11.4375 -0.015625 L 11.609375 0.140625 C 12.265625 0.628906 12.5625 1.25 12.5 2 C 12.488281 2.1875 12.429688 2.4375 12.328125 2.75 C 12.222656 3.070312 12.066406 3.472656 11.859375 3.953125 C 11.078125 5.722656 10.59375 6.773438 10.40625 7.109375 L 10.34375 7.21875 L 6.875 5.34375 L 6.921875 5.171875 C 6.960938 5.097656 7.019531 4.984375 7.09375 4.828125 C 7.175781 4.671875 7.265625 4.46875 7.359375 4.21875 C 8.242188 2.375 8.695312 1.234375 8.71875 0.796875 C 8.726562 0.648438 8.585938 0.457031 8.296875 0.21875 C 8.191406 0.132812 7.84375 -0.078125 7.25 -0.421875 L 6.390625 -0.890625 L 3.890625 3.71875 L 0.578125 1.90625 L 3.796875 -4.015625 C 4.597656 -5.441406 5.222656 -6.578125 5.671875 -7.421875 C 6.117188 -8.273438 6.421875 -8.847656 6.578125 -9.140625 C 6.867188 -9.710938 7.007812 -10.015625 7 -10.046875 C 7.03125 -10.222656 7 -10.375 6.90625 -10.5 C 6.96875 -10.457031 7.039062 -10.414062 7.125 -10.375 C 7.21875 -10.320312 7.320312 -10.265625 7.4375 -10.203125 C 7.5625 -10.148438 7.695312 -10.085938 7.84375 -10.015625 L 10.546875 -8.53125 Z M 7.734375 -3.359375 "/></g></g></g><g fill="#ff7000" fill-opacity="0.349"><g transform="translate(116.044458, 250.04419)"><g><path d="M 60.859375 -20.78125 C 66.785156 -23.09375 69.796875 -24.300781 69.890625 -24.40625 C 70.191406 -24.40625 69.539062 -23.398438 67.9375 -21.390625 C 66.632812 -19.484375 65.628906 -17.523438 64.921875 -15.515625 C 64.523438 -13.410156 64.675781 -11.953125 65.375 -11.140625 C 65.875 -10.640625 66.125 -10.140625 66.125 -9.640625 C 66.125 -9.140625 65.875 -7.984375 65.375 -6.171875 C 63.96875 -1.359375 62.515625 1.898438 61.015625 3.609375 C 56.890625 8.234375 52.269531 5.472656 47.15625 -4.671875 C 43.832031 -10.992188 43.128906 -15.660156 45.046875 -18.671875 C 46.546875 -20.890625 48.398438 -20.890625 50.609375 -18.671875 L 52.265625 -17.171875 Z M 72.3125 -24.25 C 72.207031 -25.15625 72.203125 -25.707031 72.296875 -25.90625 C 72.398438 -26.113281 72.851562 -26.21875 73.65625 -26.21875 C 75.164062 -26.21875 77.273438 -25.4375 79.984375 -23.875 C 82.703125 -22.320312 85.015625 -20.539062 86.921875 -18.53125 C 90.734375 -14.707031 93.140625 -11.164062 94.140625 -7.90625 C 95.148438 -4.644531 94.601562 -1.910156 92.5 0.296875 C 90.582031 2.609375 88.519531 3.460938 86.3125 2.859375 C 85.507812 2.859375 84.101562 1.601562 82.09375 -0.90625 C 79.988281 -3.414062 77.929688 -7.582031 75.921875 -13.40625 C 73.816406 -19.132812 72.613281 -22.75 72.3125 -24.25 Z M 93.09375 -27.5625 C 95 -28.769531 97.632812 -28.394531 101 -26.4375 C 104.363281 -24.476562 107.375 -21.640625 110.03125 -17.921875 C 112.695312 -14.210938 114.179688 -10.800781 114.484375 -7.6875 C 114.679688 -5.570312 114.425781 -3.585938 113.71875 -1.734375 C 113.019531 0.117188 111.96875 1.453125 110.5625 2.265625 C 108.957031 2.765625 107.703125 3.015625 106.796875 3.015625 C 104.390625 3.015625 101.28125 -2.457031 97.46875 -13.40625 C 95.15625 -20.03125 93.671875 -23.96875 93.015625 -25.21875 C 92.367188 -26.476562 92.394531 -27.257812 93.09375 -27.5625 Z M 65.671875 -69.453125 C 65.671875 -69.847656 65.242188 -70.5 64.390625 -71.40625 C 63.546875 -72.3125 62.867188 -72.765625 62.359375 -72.765625 C 61.859375 -72.765625 61.03125 -72.4375 59.875 -71.78125 C 58.71875 -71.125 57.660156 -70.421875 56.703125 -69.671875 C 55.753906 -68.921875 55.332031 -68.441406 55.4375 -68.234375 C 55.632812 -68.035156 57.191406 -67.484375 60.109375 -66.578125 C 62.921875 -65.578125 64.773438 -64.675781 65.671875 -63.875 C 67.078125 -62.664062 68.1875 -63.367188 69 -65.984375 C 69.5 -67.285156 69.597656 -68.210938 69.296875 -68.765625 C 68.992188 -69.316406 68.34375 -69.441406 67.34375 -69.140625 C 66.226562 -68.835938 65.671875 -68.941406 65.671875 -69.453125 Z M 47.75 -71.703125 C 48.550781 -75.117188 48.851562 -76.878906 48.65625 -76.984375 C 48.457031 -77.078125 47.957031 -76.820312 47.15625 -76.21875 C 46.351562 -75.625 45.347656 -74.875 44.140625 -73.96875 C 41.722656 -71.851562 40.460938 -70.242188 40.359375 -69.140625 C 40.265625 -68.035156 41.222656 -66.328125 43.234375 -64.015625 C 45.441406 -61.710938 47.097656 -59.734375 48.203125 -58.078125 C 49.304688 -56.421875 50.863281 -53.632812 52.875 -49.71875 C 55.28125 -45.289062 56.632812 -43 56.9375 -42.84375 C 57.238281 -42.695312 58.296875 -44.285156 60.109375 -47.609375 C 61.210938 -50.117188 61.863281 -51.625 62.0625 -52.125 C 62.257812 -52.625 62.0625 -53.078125 61.46875 -53.484375 C 60.5625 -54.078125 59.859375 -54.375 59.359375 -54.375 C 58.847656 -54.375 58.09375 -54.828125 57.09375 -55.734375 C 56.289062 -56.742188 55.035156 -57.144531 53.328125 -56.9375 L 50.609375 -56.484375 L 52.265625 -59.046875 C 53.367188 -60.660156 53.820312 -62.367188 53.625 -64.171875 C 53.320312 -65.679688 52.84375 -66.535156 52.1875 -66.734375 C 51.539062 -66.929688 50.566406 -66.78125 49.265625 -66.28125 C 47.859375 -65.476562 47.15625 -65.726562 47.15625 -67.03125 C 47.15625 -68.039062 47.351562 -69.597656 47.75 -71.703125 Z M 76.828125 -87.671875 C 76.828125 -88.273438 74.96875 -88.328125 71.25 -87.828125 C 69.75 -87.828125 68.644531 -87.171875 67.9375 -85.859375 C 67.332031 -84.453125 67.101562 -83.570312 67.25 -83.21875 C 67.40625 -82.875 68.285156 -82.453125 69.890625 -81.953125 C 72.203125 -81.148438 73.410156 -80.75 73.515625 -80.75 C 74.015625 -80.75 74.414062 -80.894531 74.71875 -81.1875 C 75.019531 -81.488281 75.421875 -82.242188 75.921875 -83.453125 C 76.523438 -85.566406 76.828125 -86.972656 76.828125 -87.671875 Z M 100.03125 -126.53125 C 102.4375 -127.039062 104.492188 -126.640625 106.203125 -125.328125 C 107.710938 -124.222656 109.164062 -123.570312 110.5625 -123.375 C 111.675781 -123.070312 112.679688 -122.820312 113.578125 -122.625 C 115.585938 -122.21875 116.289062 -118.648438 115.6875 -111.921875 C 115.382812 -107.804688 115.15625 -104.644531 115 -102.4375 C 114.851562 -100.226562 114.753906 -98.394531 114.703125 -96.9375 C 114.660156 -95.476562 114.738281 -94.570312 114.9375 -94.21875 C 115.132812 -93.875 115.335938 -93.703125 115.546875 -93.703125 C 116.648438 -93.703125 118.054688 -96.765625 119.765625 -102.890625 C 120.359375 -105.898438 120.40625 -108.257812 119.90625 -109.96875 C 119.507812 -111.476562 119.410156 -112.484375 119.609375 -112.984375 C 119.804688 -113.484375 120.457031 -113.9375 121.5625 -114.34375 C 124.28125 -114.9375 126.992188 -113.476562 129.703125 -109.96875 C 131.804688 -107.351562 132.859375 -105.316406 132.859375 -103.859375 C 132.859375 -102.410156 131.804688 -100.832031 129.703125 -99.125 C 128.597656 -98.113281 127.816406 -97.53125 127.359375 -97.375 C 126.910156 -97.226562 126.1875 -97.304688 125.1875 -97.609375 C 123.976562 -98.117188 122.722656 -98.019531 121.421875 -97.3125 C 118.703125 -96.007812 119.40625 -94.851562 123.53125 -93.84375 C 123.726562 -93.75 123.976562 -93.703125 124.28125 -93.703125 C 128.289062 -92.691406 130.875 -91.832031 132.03125 -91.125 C 133.1875 -90.425781 133.914062 -89.125 134.21875 -87.21875 C 134.71875 -85.113281 134.867188 -83.707031 134.671875 -83 C 134.265625 -82.300781 132.90625 -81.296875 130.59375 -79.984375 C 128.289062 -78.679688 126.035156 -77.679688 123.828125 -76.984375 C 121.515625 -76.078125 120.257812 -75.320312 120.0625 -74.71875 C 119.863281 -74.007812 122.070312 -70.066406 126.6875 -62.890625 C 131.3125 -55.710938 134.726562 -51.019531 136.9375 -48.8125 C 138.039062 -47.800781 139.867188 -45.664062 142.421875 -42.40625 C 144.984375 -39.144531 146.519531 -37.0625 147.03125 -36.15625 C 147.425781 -35.25 147.828125 -34.492188 148.234375 -33.890625 C 148.734375 -33.285156 148.582031 -32.582031 147.78125 -31.78125 C 147.070312 -30.875 145.113281 -30.320312 141.90625 -30.125 C 139.789062 -29.925781 137.226562 -29.375 134.21875 -28.46875 C 131.207031 -27.5625 129.703125 -26.859375 129.703125 -26.359375 C 129.703125 -26.054688 130.601562 -25.003906 132.40625 -23.203125 C 133.914062 -21.585938 135.5 -19.171875 137.15625 -15.953125 C 138.8125 -12.742188 139.640625 -10.4375 139.640625 -9.03125 C 139.835938 -4.007812 138.679688 -0.242188 136.171875 2.265625 C 133.867188 4.367188 131.835938 5.242188 130.078125 4.890625 C 128.316406 4.546875 126.632812 2.96875 125.03125 0.15625 C 123.820312 -1.957031 121.6875 -7.15625 118.625 -15.4375 C 115.5625 -23.726562 114.03125 -28.425781 114.03125 -29.53125 C 114.03125 -30.03125 114.707031 -30.351562 116.0625 -30.5 C 117.425781 -30.65625 118.707031 -30.582031 119.90625 -30.28125 C 120.3125 -30.175781 120.738281 -30.097656 121.1875 -30.046875 C 121.644531 -30.003906 122 -30.003906 122.25 -30.046875 C 122.5 -30.097656 122.625 -30.125 122.625 -30.125 C 122.625 -30.320312 122.019531 -31.328125 120.8125 -33.140625 C 120.113281 -34.546875 118.429688 -38.1875 115.765625 -44.0625 C 113.109375 -49.9375 111.375 -54.078125 110.5625 -56.484375 C 109.757812 -58.597656 109.179688 -59.65625 108.828125 -59.65625 C 108.484375 -59.65625 107.707031 -57.945312 106.5 -54.53125 C 105.59375 -51.519531 104.210938 -48.484375 102.359375 -45.421875 C 100.503906 -42.359375 98.875 -40.222656 97.46875 -39.015625 C 96.0625 -37.710938 93.097656 -36.054688 88.578125 -34.046875 C 84.660156 -32.441406 81.75 -31.035156 79.84375 -29.828125 C 78.226562 -28.617188 77.273438 -28.21875 76.984375 -28.625 C 76.171875 -29.53125 78.328125 -35.304688 83.453125 -45.953125 C 89.078125 -57.597656 91.890625 -64.773438 91.890625 -67.484375 C 91.890625 -68.191406 91.410156 -68.71875 90.453125 -69.0625 C 89.503906 -69.414062 88.78125 -69.289062 88.28125 -68.6875 C 87.675781 -67.988281 86.769531 -66.285156 85.5625 -63.578125 C 83.25 -57.847656 80.410156 -52.570312 77.046875 -47.75 C 73.679688 -42.925781 70.394531 -39.160156 67.1875 -36.453125 C 59.65625 -30.328125 55.890625 -26.8125 55.890625 -25.90625 C 55.890625 -25.300781 54.859375 -24.597656 52.796875 -23.796875 C 50.742188 -22.992188 49.515625 -22.742188 49.109375 -23.046875 C 48.609375 -23.546875 47.976562 -23.796875 47.21875 -23.796875 C 46.46875 -23.796875 46.09375 -24 46.09375 -24.40625 C 46.09375 -24.800781 45.539062 -25.804688 44.4375 -27.421875 C 43.632812 -28.617188 42.328125 -31.53125 40.515625 -36.15625 C 38.710938 -40.46875 37.710938 -42.625 37.515625 -42.625 C 37.109375 -42.625 36.804688 -41.773438 36.609375 -40.078125 C 35.203125 -30.628906 33.289062 -23.921875 30.875 -19.953125 C 28.46875 -15.992188 24.351562 -12.65625 18.53125 -9.9375 C 14.8125 -8.332031 11.546875 -6.273438 8.734375 -3.765625 C 5.921875 -1.359375 4.164062 -0.15625 3.46875 -0.15625 C 1.257812 -0.15625 3.113281 -6.128906 9.03125 -18.078125 C 13.351562 -26.710938 15.765625 -32.382812 16.265625 -35.09375 C 17.066406 -38.207031 17.894531 -42.753906 18.75 -48.734375 C 19.601562 -54.710938 20.03125 -58.703125 20.03125 -60.703125 L 20.03125 -64.46875 L 17.921875 -63.875 C 17.023438 -63.675781 16.320312 -63.722656 15.8125 -64.015625 C 15.3125 -64.316406 14.507812 -65.070312 13.40625 -66.28125 C 11.601562 -68.09375 9.945312 -71.359375 8.4375 -76.078125 C 7.425781 -79.785156 6.867188 -82.46875 6.765625 -84.125 C 6.671875 -85.789062 7.078125 -87.023438 7.984375 -87.828125 C 9.390625 -89.023438 12.601562 -87.769531 17.625 -84.0625 C 20.238281 -82.050781 21.695312 -81.242188 22 -81.640625 C 22.300781 -81.941406 22.851562 -87.015625 23.65625 -96.859375 L 24.859375 -111.78125 L 23.046875 -113.890625 C 22.242188 -114.890625 21.816406 -115.5625 21.765625 -115.90625 C 21.710938 -116.257812 21.890625 -116.890625 22.296875 -117.796875 C 22.898438 -119.109375 23.953125 -120.164062 25.453125 -120.96875 C 26.554688 -121.46875 27.285156 -121.71875 27.640625 -121.71875 C 27.992188 -121.71875 28.472656 -121.46875 29.078125 -120.96875 C 29.773438 -120.164062 30.628906 -119.765625 31.640625 -119.765625 C 33.046875 -119.765625 34.976562 -119.382812 37.4375 -118.625 C 39.894531 -117.875 41.328125 -117.144531 41.734375 -116.4375 C 44.035156 -113.925781 44.835938 -110.664062 44.140625 -106.65625 C 43.640625 -104.039062 43.1875 -100.523438 42.78125 -96.109375 C 42.375 -91.691406 42.269531 -89.40625 42.46875 -89.25 C 42.675781 -89.101562 43.28125 -89.859375 44.28125 -91.515625 C 45.289062 -93.171875 46.320312 -94.976562 47.375 -96.9375 C 48.425781 -98.894531 49.003906 -100.222656 49.109375 -100.921875 C 49.410156 -102.035156 50.113281 -102.84375 51.21875 -103.34375 C 52.320312 -103.84375 53.375 -103.738281 54.375 -103.03125 C 55.582031 -102.4375 56.4375 -102.1875 56.9375 -102.28125 C 57.445312 -102.488281 58.726562 -105.351562 60.78125 -110.875 C 62.84375 -116.394531 63.722656 -119.507812 63.421875 -120.21875 C 63.222656 -120.613281 63.320312 -121.515625 63.71875 -122.921875 C 64.125 -124.328125 64.425781 -125.03125 64.625 -125.03125 C 65.320312 -125.03125 67.023438 -124.628906 69.734375 -123.828125 C 72.453125 -123.023438 74.363281 -122.375 75.46875 -121.875 C 77.070312 -121.0625 78.351562 -120.078125 79.3125 -118.921875 C 80.269531 -117.773438 80.75 -116.546875 80.75 -115.234375 C 80.75 -114.535156 79.941406 -112.378906 78.328125 -108.765625 C 76.921875 -105.347656 76.21875 -103.4375 76.21875 -103.03125 C 76.21875 -102.226562 76.972656 -102.28125 78.484375 -103.1875 C 79.085938 -103.59375 79.585938 -103.992188 79.984375 -104.390625 C 82.191406 -106.597656 85.8125 -106.398438 90.84375 -103.796875 L 95.046875 -101.53125 L 95.046875 -97.765625 C 95.046875 -95.253906 94.644531 -92.390625 93.84375 -89.171875 C 92.644531 -85.359375 92.347656 -83.453125 92.953125 -83.453125 C 93.148438 -83.453125 93.648438 -83.703125 94.453125 -84.203125 C 95.859375 -84.910156 96.757812 -85.816406 97.15625 -86.921875 C 97.5625 -88.023438 97.765625 -90.132812 97.765625 -93.25 C 97.765625 -96.757812 98.015625 -101.476562 98.515625 -107.40625 C 98.816406 -111.519531 98.941406 -114.050781 98.890625 -115 C 98.847656 -115.957031 98.472656 -116.890625 97.765625 -117.796875 C 96.859375 -119.109375 96.40625 -120.210938 96.40625 -121.109375 C 96.40625 -122.117188 96.832031 -123.25 97.6875 -124.5 C 98.539062 -125.757812 99.320312 -126.4375 100.03125 -126.53125 Z M 100.03125 -126.53125 "/></g></g></g><g fill="#ff7000" fill-opacity="1"><g transform="translate(112.183269, 246.183003)"><g><path d="M 60.859375 -20.78125 C 66.785156 -23.09375 69.796875 -24.300781 69.890625 -24.40625 C 70.191406 -24.40625 69.539062 -23.398438 67.9375 -21.390625 C 66.632812 -19.484375 65.628906 -17.523438 64.921875 -15.515625 C 64.523438 -13.410156 64.675781 -11.953125 65.375 -11.140625 C 65.875 -10.640625 66.125 -10.140625 66.125 -9.640625 C 66.125 -9.140625 65.875 -7.984375 65.375 -6.171875 C 63.96875 -1.359375 62.515625 1.898438 61.015625 3.609375 C 56.890625 8.234375 52.269531 5.472656 47.15625 -4.671875 C 43.832031 -10.992188 43.128906 -15.660156 45.046875 -18.671875 C 46.546875 -20.890625 48.398438 -20.890625 50.609375 -18.671875 L 52.265625 -17.171875 Z M 72.3125 -24.25 C 72.207031 -25.15625 72.203125 -25.707031 72.296875 -25.90625 C 72.398438 -26.113281 72.851562 -26.21875 73.65625 -26.21875 C 75.164062 -26.21875 77.273438 -25.4375 79.984375 -23.875 C 82.703125 -22.320312 85.015625 -20.539062 86.921875 -18.53125 C 90.734375 -14.707031 93.140625 -11.164062 94.140625 -7.90625 C 95.148438 -4.644531 94.601562 -1.910156 92.5 0.296875 C 90.582031 2.609375 88.519531 3.460938 86.3125 2.859375 C 85.507812 2.859375 84.101562 1.601562 82.09375 -0.90625 C 79.988281 -3.414062 77.929688 -7.582031 75.921875 -13.40625 C 73.816406 -19.132812 72.613281 -22.75 72.3125 -24.25 Z M 93.09375 -27.5625 C 95 -28.769531 97.632812 -28.394531 101 -26.4375 C 104.363281 -24.476562 107.375 -21.640625 110.03125 -17.921875 C 112.695312 -14.210938 114.179688 -10.800781 114.484375 -7.6875 C 114.679688 -5.570312 114.425781 -3.585938 113.71875 -1.734375 C 113.019531 0.117188 111.96875 1.453125 110.5625 2.265625 C 108.957031 2.765625 107.703125 3.015625 106.796875 3.015625 C 104.390625 3.015625 101.28125 -2.457031 97.46875 -13.40625 C 95.15625 -20.03125 93.671875 -23.96875 93.015625 -25.21875 C 92.367188 -26.476562 92.394531 -27.257812 93.09375 -27.5625 Z M 65.671875 -69.453125 C 65.671875 -69.847656 65.242188 -70.5 64.390625 -71.40625 C 63.546875 -72.3125 62.867188 -72.765625 62.359375 -72.765625 C 61.859375 -72.765625 61.03125 -72.4375 59.875 -71.78125 C 58.71875 -71.125 57.660156 -70.421875 56.703125 -69.671875 C 55.753906 -68.921875 55.332031 -68.441406 55.4375 -68.234375 C 55.632812 -68.035156 57.191406 -67.484375 60.109375 -66.578125 C 62.921875 -65.578125 64.773438 -64.675781 65.671875 -63.875 C 67.078125 -62.664062 68.1875 -63.367188 69 -65.984375 C 69.5 -67.285156 69.597656 -68.210938 69.296875 -68.765625 C 68.992188 -69.316406 68.34375 -69.441406 67.34375 -69.140625 C 66.226562 -68.835938 65.671875 -68.941406 65.671875 -69.453125 Z M 47.75 -71.703125 C 48.550781 -75.117188 48.851562 -76.878906 48.65625 -76.984375 C 48.457031 -77.078125 47.957031 -76.820312 47.15625 -76.21875 C 46.351562 -75.625 45.347656 -74.875 44.140625 -73.96875 C 41.722656 -71.851562 40.460938 -70.242188 40.359375 -69.140625 C 40.265625 -68.035156 41.222656 -66.328125 43.234375 -64.015625 C 45.441406 -61.710938 47.097656 -59.734375 48.203125 -58.078125 C 49.304688 -56.421875 50.863281 -53.632812 52.875 -49.71875 C 55.28125 -45.289062 56.632812 -43 56.9375 -42.84375 C 57.238281 -42.695312 58.296875 -44.285156 60.109375 -47.609375 C 61.210938 -50.117188 61.863281 -51.625 62.0625 -52.125 C 62.257812 -52.625 62.0625 -53.078125 61.46875 -53.484375 C 60.5625 -54.078125 59.859375 -54.375 59.359375 -54.375 C 58.847656 -54.375 58.09375 -54.828125 57.09375 -55.734375 C 56.289062 -56.742188 55.035156 -57.144531 53.328125 -56.9375 L 50.609375 -56.484375 L 52.265625 -59.046875 C 53.367188 -60.660156 53.820312 -62.367188 53.625 -64.171875 C 53.320312 -65.679688 52.84375 -66.535156 52.1875 -66.734375 C 51.539062 -66.929688 50.566406 -66.78125 49.265625 -66.28125 C 47.859375 -65.476562 47.15625 -65.726562 47.15625 -67.03125 C 47.15625 -68.039062 47.351562 -69.597656 47.75 -71.703125 Z M 76.828125 -87.671875 C 76.828125 -88.273438 74.96875 -88.328125 71.25 -87.828125 C 69.75 -87.828125 68.644531 -87.171875 67.9375 -85.859375 C 67.332031 -84.453125 67.101562 -83.570312 67.25 -83.21875 C 67.40625 -82.875 68.285156 -82.453125 69.890625 -81.953125 C 72.203125 -81.148438 73.410156 -80.75 73.515625 -80.75 C 74.015625 -80.75 74.414062 -80.894531 74.71875 -81.1875 C 75.019531 -81.488281 75.421875 -82.242188 75.921875 -83.453125 C 76.523438 -85.566406 76.828125 -86.972656 76.828125 -87.671875 Z M 100.03125 -126.53125 C 102.4375 -127.039062 104.492188 -126.640625 106.203125 -125.328125 C 107.710938 -124.222656 109.164062 -123.570312 110.5625 -123.375 C 111.675781 -123.070312 112.679688 -122.820312 113.578125 -122.625 C 115.585938 -122.21875 116.289062 -118.648438 115.6875 -111.921875 C 115.382812 -107.804688 115.15625 -104.644531 115 -102.4375 C 114.851562 -100.226562 114.753906 -98.394531 114.703125 -96.9375 C 114.660156 -95.476562 114.738281 -94.570312 114.9375 -94.21875 C 115.132812 -93.875 115.335938 -93.703125 115.546875 -93.703125 C 116.648438 -93.703125 118.054688 -96.765625 119.765625 -102.890625 C 120.359375 -105.898438 120.40625 -108.257812 119.90625 -109.96875 C 119.507812 -111.476562 119.410156 -112.484375 119.609375 -112.984375 C 119.804688 -113.484375 120.457031 -113.9375 121.5625 -114.34375 C 124.28125 -114.9375 126.992188 -113.476562 129.703125 -109.96875 C 131.804688 -107.351562 132.859375 -105.316406 132.859375 -103.859375 C 132.859375 -102.410156 131.804688 -100.832031 129.703125 -99.125 C 128.597656 -98.113281 127.816406 -97.53125 127.359375 -97.375 C 126.910156 -97.226562 126.1875 -97.304688 125.1875 -97.609375 C 123.976562 -98.117188 122.722656 -98.019531 121.421875 -97.3125 C 118.703125 -96.007812 119.40625 -94.851562 123.53125 -93.84375 C 123.726562 -93.75 123.976562 -93.703125 124.28125 -93.703125 C 128.289062 -92.691406 130.875 -91.832031 132.03125 -91.125 C 133.1875 -90.425781 133.914062 -89.125 134.21875 -87.21875 C 134.71875 -85.113281 134.867188 -83.707031 134.671875 -83 C 134.265625 -82.300781 132.90625 -81.296875 130.59375 -79.984375 C 128.289062 -78.679688 126.035156 -77.679688 123.828125 -76.984375 C 121.515625 -76.078125 120.257812 -75.320312 120.0625 -74.71875 C 119.863281 -74.007812 122.070312 -70.066406 126.6875 -62.890625 C 131.3125 -55.710938 134.726562 -51.019531 136.9375 -48.8125 C 138.039062 -47.800781 139.867188 -45.664062 142.421875 -42.40625 C 144.984375 -39.144531 146.519531 -37.0625 147.03125 -36.15625 C 147.425781 -35.25 147.828125 -34.492188 148.234375 -33.890625 C 148.734375 -33.285156 148.582031 -32.582031 147.78125 -31.78125 C 147.070312 -30.875 145.113281 -30.320312 141.90625 -30.125 C 139.789062 -29.925781 137.226562 -29.375 134.21875 -28.46875 C 131.207031 -27.5625 129.703125 -26.859375 129.703125 -26.359375 C 129.703125 -26.054688 130.601562 -25.003906 132.40625 -23.203125 C 133.914062 -21.585938 135.5 -19.171875 137.15625 -15.953125 C 138.8125 -12.742188 139.640625 -10.4375 139.640625 -9.03125 C 139.835938 -4.007812 138.679688 -0.242188 136.171875 2.265625 C 133.867188 4.367188 131.835938 5.242188 130.078125 4.890625 C 128.316406 4.546875 126.632812 2.96875 125.03125 0.15625 C 123.820312 -1.957031 121.6875 -7.15625 118.625 -15.4375 C 115.5625 -23.726562 114.03125 -28.425781 114.03125 -29.53125 C 114.03125 -30.03125 114.707031 -30.351562 116.0625 -30.5 C 117.425781 -30.65625 118.707031 -30.582031 119.90625 -30.28125 C 120.3125 -30.175781 120.738281 -30.097656 121.1875 -30.046875 C 121.644531 -30.003906 122 -30.003906 122.25 -30.046875 C 122.5 -30.097656 122.625 -30.125 122.625 -30.125 C 122.625 -30.320312 122.019531 -31.328125 120.8125 -33.140625 C 120.113281 -34.546875 118.429688 -38.1875 115.765625 -44.0625 C 113.109375 -49.9375 111.375 -54.078125 110.5625 -56.484375 C 109.757812 -58.597656 109.179688 -59.65625 108.828125 -59.65625 C 108.484375 -59.65625 107.707031 -57.945312 106.5 -54.53125 C 105.59375 -51.519531 104.210938 -48.484375 102.359375 -45.421875 C 100.503906 -42.359375 98.875 -40.222656 97.46875 -39.015625 C 96.0625 -37.710938 93.097656 -36.054688 88.578125 -34.046875 C 84.660156 -32.441406 81.75 -31.035156 79.84375 -29.828125 C 78.226562 -28.617188 77.273438 -28.21875 76.984375 -28.625 C 76.171875 -29.53125 78.328125 -35.304688 83.453125 -45.953125 C 89.078125 -57.597656 91.890625 -64.773438 91.890625 -67.484375 C 91.890625 -68.191406 91.410156 -68.71875 90.453125 -69.0625 C 89.503906 -69.414062 88.78125 -69.289062 88.28125 -68.6875 C 87.675781 -67.988281 86.769531 -66.285156 85.5625 -63.578125 C 83.25 -57.847656 80.410156 -52.570312 77.046875 -47.75 C 73.679688 -42.925781 70.394531 -39.160156 67.1875 -36.453125 C 59.65625 -30.328125 55.890625 -26.8125 55.890625 -25.90625 C 55.890625 -25.300781 54.859375 -24.597656 52.796875 -23.796875 C 50.742188 -22.992188 49.515625 -22.742188 49.109375 -23.046875 C 48.609375 -23.546875 47.976562 -23.796875 47.21875 -23.796875 C 46.46875 -23.796875 46.09375 -24 46.09375 -24.40625 C 46.09375 -24.800781 45.539062 -25.804688 44.4375 -27.421875 C 43.632812 -28.617188 42.328125 -31.53125 40.515625 -36.15625 C 38.710938 -40.46875 37.710938 -42.625 37.515625 -42.625 C 37.109375 -42.625 36.804688 -41.773438 36.609375 -40.078125 C 35.203125 -30.628906 33.289062 -23.921875 30.875 -19.953125 C 28.46875 -15.992188 24.351562 -12.65625 18.53125 -9.9375 C 14.8125 -8.332031 11.546875 -6.273438 8.734375 -3.765625 C 5.921875 -1.359375 4.164062 -0.15625 3.46875 -0.15625 C 1.257812 -0.15625 3.113281 -6.128906 9.03125 -18.078125 C 13.351562 -26.710938 15.765625 -32.382812 16.265625 -35.09375 C 17.066406 -38.207031 17.894531 -42.753906 18.75 -48.734375 C 19.601562 -54.710938 20.03125 -58.703125 20.03125 -60.703125 L 20.03125 -64.46875 L 17.921875 -63.875 C 17.023438 -63.675781 16.320312 -63.722656 15.8125 -64.015625 C 15.3125 -64.316406 14.507812 -65.070312 13.40625 -66.28125 C 11.601562 -68.09375 9.945312 -71.359375 8.4375 -76.078125 C 7.425781 -79.785156 6.867188 -82.46875 6.765625 -84.125 C 6.671875 -85.789062 7.078125 -87.023438 7.984375 -87.828125 C 9.390625 -89.023438 12.601562 -87.769531 17.625 -84.0625 C 20.238281 -82.050781 21.695312 -81.242188 22 -81.640625 C 22.300781 -81.941406 22.851562 -87.015625 23.65625 -96.859375 L 24.859375 -111.78125 L 23.046875 -113.890625 C 22.242188 -114.890625 21.816406 -115.5625 21.765625 -115.90625 C 21.710938 -116.257812 21.890625 -116.890625 22.296875 -117.796875 C 22.898438 -119.109375 23.953125 -120.164062 25.453125 -120.96875 C 26.554688 -121.46875 27.285156 -121.71875 27.640625 -121.71875 C 27.992188 -121.71875 28.472656 -121.46875 29.078125 -120.96875 C 29.773438 -120.164062 30.628906 -119.765625 31.640625 -119.765625 C 33.046875 -119.765625 34.976562 -119.382812 37.4375 -118.625 C 39.894531 -117.875 41.328125 -117.144531 41.734375 -116.4375 C 44.035156 -113.925781 44.835938 -110.664062 44.140625 -106.65625 C 43.640625 -104.039062 43.1875 -100.523438 42.78125 -96.109375 C 42.375 -91.691406 42.269531 -89.40625 42.46875 -89.25 C 42.675781 -89.101562 43.28125 -89.859375 44.28125 -91.515625 C 45.289062 -93.171875 46.320312 -94.976562 47.375 -96.9375 C 48.425781 -98.894531 49.003906 -100.222656 49.109375 -100.921875 C 49.410156 -102.035156 50.113281 -102.84375 51.21875 -103.34375 C 52.320312 -103.84375 53.375 -103.738281 54.375 -103.03125 C 55.582031 -102.4375 56.4375 -102.1875 56.9375 -102.28125 C 57.445312 -102.488281 58.726562 -105.351562 60.78125 -110.875 C 62.84375 -116.394531 63.722656 -119.507812 63.421875 -120.21875 C 63.222656 -120.613281 63.320312 -121.515625 63.71875 -122.921875 C 64.125 -124.328125 64.425781 -125.03125 64.625 -125.03125 C 65.320312 -125.03125 67.023438 -124.628906 69.734375 -123.828125 C 72.453125 -123.023438 74.363281 -122.375 75.46875 -121.875 C 77.070312 -121.0625 78.351562 -120.078125 79.3125 -118.921875 C 80.269531 -117.773438 80.75 -116.546875 80.75 -115.234375 C 80.75 -114.535156 79.941406 -112.378906 78.328125 -108.765625 C 76.921875 -105.347656 76.21875 -103.4375 76.21875 -103.03125 C 76.21875 -102.226562 76.972656 -102.28125 78.484375 -103.1875 C 79.085938 -103.59375 79.585938 -103.992188 79.984375 -104.390625 C 82.191406 -106.597656 85.8125 -106.398438 90.84375 -103.796875 L 95.046875 -101.53125 L 95.046875 -97.765625 C 95.046875 -95.253906 94.644531 -92.390625 93.84375 -89.171875 C 92.644531 -85.359375 92.347656 -83.453125 92.953125 -83.453125 C 93.148438 -83.453125 93.648438 -83.703125 94.453125 -84.203125 C 95.859375 -84.910156 96.757812 -85.816406 97.15625 -86.921875 C 97.5625 -88.023438 97.765625 -90.132812 97.765625 -93.25 C 97.765625 -96.757812 98.015625 -101.476562 98.515625 -107.40625 C 98.816406 -111.519531 98.941406 -114.050781 98.890625 -115 C 98.847656 -115.957031 98.472656 -116.890625 97.765625 -117.796875 C 96.859375 -119.109375 96.40625 -120.210938 96.40625 -121.109375 C 96.40625 -122.117188 96.832031 -123.25 97.6875 -124.5 C 98.539062 -125.757812 99.320312 -126.4375 100.03125 -126.53125 Z M 100.03125 -126.53125 "/></g></g></g></svg>