<svg width="17.500000" height="17.500000" viewBox="0 0 17.5 17.5" fill="none" xmlns="http://www.w3.org/2000/svg" xmlns:xlink="http://www.w3.org/1999/xlink">
	<desc>
			Created with Pixso.
	</desc>
	<defs/>
	<path id="path" d="M12 0.89C11.48 0.68 10.95 0.52 10.4 0.41C9.86 0.3 9.3 0.24 8.75 0.25C4.05 0.25 0.25 4.05 0.25 8.75C0.25 13.44 4.05 17.25 8.75 17.25C13.44 17.25 17.25 13.44 17.25 8.75C17.25 7.61 17.02 6.51 16.6 5.49C16.59 5.47 16.58 5.44 16.56 5.42C16.54 5.4 16.53 5.38 16.51 5.36C16.49 5.34 16.47 5.32 16.44 5.31C16.42 5.29 16.39 5.28 16.37 5.27C16.34 5.26 16.32 5.25 16.29 5.24C16.26 5.24 16.24 5.24 16.21 5.24C16.18 5.24 16.15 5.24 16.13 5.25C16.1 5.25 16.07 5.26 16.05 5.27C16.02 5.28 16 5.29 15.98 5.31C15.95 5.32 15.93 5.34 15.91 5.36C15.89 5.38 15.87 5.4 15.86 5.42C15.84 5.45 15.83 5.47 15.82 5.5C15.81 5.52 15.8 5.55 15.8 5.57C15.79 5.6 15.79 5.63 15.79 5.66C15.79 5.68 15.79 5.71 15.79 5.74C15.8 5.76 15.8 5.79 15.81 5.82C16.01 6.28 16.15 6.76 16.25 7.25C16.35 7.75 16.4 8.24 16.4 8.75C16.4 12.97 12.97 16.4 8.75 16.4C4.52 16.4 1.09 12.97 1.09 8.75C1.09 4.52 4.52 1.09 8.75 1.09C9.76 1.09 10.75 1.29 11.67 1.68C11.7 1.69 11.73 1.69 11.75 1.7C11.78 1.7 11.81 1.7 11.83 1.7C11.86 1.7 11.89 1.7 11.92 1.69C11.94 1.69 11.97 1.68 11.99 1.67C12.02 1.66 12.04 1.65 12.07 1.63C12.09 1.62 12.11 1.6 12.13 1.58C12.15 1.56 12.17 1.54 12.18 1.51C12.2 1.49 12.21 1.47 12.22 1.44C12.23 1.42 12.24 1.39 12.24 1.36C12.25 1.34 12.25 1.31 12.25 1.28C12.25 1.25 12.25 1.23 12.25 1.2C12.24 1.17 12.23 1.15 12.22 1.12C12.21 1.1 12.2 1.07 12.18 1.05C12.17 1.02 12.15 1 12.13 0.98C12.11 0.96 12.09 0.95 12.07 0.93C12.05 0.91 12.02 0.9 12 0.89ZM9.65 9.84C9.57 9.87 9.49 9.91 9.4 9.95C9.37 9.96 9.33 9.98 9.3 10.01C9.27 10.04 9.25 10.07 9.23 10.1C9.21 10.13 9.19 10.17 9.18 10.21C9.17 10.25 9.16 10.29 9.16 10.33C9.16 10.4 9.16 10.47 9.15 10.54C9.1 10.75 8.9 10.89 8.71 10.87C8.65 10.86 8.6 10.85 8.56 10.83C8.51 10.8 8.47 10.77 8.43 10.74C8.4 10.7 8.37 10.65 8.35 10.61C8.33 10.56 8.32 10.51 8.32 10.45C8.29 9.86 8.54 9.42 9.09 9.16C9.16 9.12 9.23 9.09 9.31 9.06C10.05 8.8 10.51 8.07 10.43 7.3C10.34 6.52 9.73 5.89 8.97 5.79C8.91 5.78 8.85 5.78 8.79 5.78C8.73 5.77 8.67 5.78 8.61 5.78C8.55 5.78 8.49 5.79 8.44 5.8C8.38 5.81 8.32 5.83 8.26 5.84C8.21 5.86 8.15 5.88 8.09 5.9C8.04 5.93 7.99 5.95 7.93 5.98C7.88 6.01 7.83 6.04 7.78 6.07C7.73 6.11 7.69 6.14 7.64 6.18C7.6 6.22 7.55 6.26 7.51 6.3C7.47 6.35 7.43 6.39 7.4 6.44C7.36 6.48 7.33 6.53 7.29 6.58C7.26 6.63 7.24 6.69 7.21 6.74C7.18 6.79 7.16 6.85 7.14 6.9C7.12 6.96 7.1 7.02 7.09 7.07C7.08 7.13 7.07 7.19 7.06 7.25C7.05 7.31 7.04 7.37 7.04 7.43C7.04 7.48 7.04 7.54 7.02 7.59C7.01 7.64 6.99 7.68 6.96 7.73C6.93 7.77 6.89 7.8 6.85 7.83C6.81 7.86 6.76 7.88 6.71 7.89C6.67 7.9 6.62 7.9 6.57 7.89C6.51 7.89 6.46 7.87 6.42 7.85C6.37 7.82 6.33 7.79 6.3 7.75C6.26 7.71 6.24 7.67 6.22 7.62C6.2 7.57 6.19 7.51 6.2 7.46C6.2 6.84 6.4 6.28 6.82 5.81C7.5 5.05 8.36 4.76 9.36 5.01C10.36 5.26 10.98 5.93 11.22 6.94C11.26 7.12 11.27 7.3 11.3 7.47C11.27 8.53 10.64 9.46 9.65 9.84ZM8.32 12.15C8.32 12.12 8.32 12.09 8.33 12.06C8.33 12.03 8.34 12.01 8.35 11.98C8.36 11.96 8.38 11.93 8.39 11.91C8.41 11.89 8.42 11.86 8.44 11.84C8.46 11.82 8.49 11.81 8.51 11.79C8.53 11.78 8.56 11.76 8.58 11.75C8.61 11.74 8.63 11.73 8.66 11.73C8.69 11.72 8.72 11.72 8.75 11.72C8.98 11.72 9.17 11.91 9.17 12.14L9.17 12.57C9.17 12.6 9.17 12.63 9.16 12.65C9.16 12.68 9.15 12.71 9.14 12.73C9.13 12.76 9.11 12.78 9.1 12.81C9.08 12.83 9.07 12.85 9.05 12.87C9.03 12.89 9 12.91 8.98 12.92C8.96 12.94 8.93 12.95 8.91 12.96C8.88 12.97 8.86 12.98 8.83 12.99C8.8 12.99 8.77 13 8.75 13C8.51 13 8.32 12.81 8.32 12.57L8.32 12.15Z" fill="#353533" fill-opacity="1.000000" fill-rule="nonzero"/>
	<path id="path" d="M10.4 0.41C9.86 0.3 9.3 0.24 8.75 0.25C4.05 0.25 0.25 4.05 0.25 8.75C0.25 13.44 4.05 17.25 8.75 17.25C13.44 17.25 17.25 13.44 17.25 8.75C17.25 7.61 17.02 6.51 16.6 5.49C16.59 5.47 16.58 5.44 16.56 5.42C16.54 5.4 16.53 5.38 16.51 5.36C16.49 5.34 16.47 5.32 16.44 5.31C16.42 5.29 16.39 5.28 16.37 5.27C16.34 5.26 16.32 5.25 16.29 5.24C16.26 5.24 16.24 5.24 16.21 5.24C16.18 5.24 16.15 5.24 16.13 5.25C16.1 5.25 16.07 5.26 16.05 5.27C16.02 5.28 16 5.29 15.98 5.31C15.95 5.32 15.93 5.34 15.91 5.36C15.89 5.38 15.87 5.4 15.86 5.42C15.84 5.45 15.83 5.47 15.82 5.5C15.81 5.52 15.8 5.55 15.8 5.57C15.79 5.6 15.79 5.63 15.79 5.66C15.79 5.68 15.79 5.71 15.79 5.74C15.8 5.76 15.8 5.79 15.81 5.82C16.01 6.28 16.15 6.76 16.25 7.25C16.35 7.75 16.4 8.24 16.4 8.75C16.4 12.97 12.97 16.4 8.75 16.4C4.52 16.4 1.09 12.97 1.09 8.75C1.09 4.52 4.52 1.09 8.75 1.09C9.76 1.09 10.75 1.29 11.67 1.68C11.7 1.69 11.73 1.69 11.75 1.7C11.78 1.7 11.81 1.7 11.83 1.7C11.86 1.7 11.89 1.7 11.92 1.69C11.94 1.69 11.97 1.68 11.99 1.67C12.02 1.66 12.04 1.65 12.07 1.63C12.09 1.62 12.11 1.6 12.13 1.58C12.15 1.56 12.17 1.54 12.18 1.51C12.2 1.49 12.21 1.47 12.22 1.44C12.23 1.42 12.24 1.39 12.24 1.36C12.25 1.34 12.25 1.31 12.25 1.28C12.25 1.25 12.25 1.23 12.25 1.2C12.24 1.17 12.23 1.15 12.22 1.12C12.21 1.1 12.2 1.07 12.18 1.05C12.17 1.02 12.15 1 12.13 0.98C12.11 0.96 12.09 0.95 12.07 0.93C12.05 0.91 12.02 0.9 12 0.89C11.48 0.68 10.95 0.52 10.4 0.41ZM9.4 9.95C9.37 9.96 9.33 9.98 9.3 10.01C9.27 10.04 9.25 10.07 9.23 10.1C9.21 10.13 9.19 10.17 9.18 10.21C9.17 10.25 9.16 10.29 9.16 10.33C9.16 10.4 9.16 10.47 9.15 10.54C9.1 10.75 8.9 10.89 8.71 10.87C8.65 10.86 8.6 10.85 8.56 10.83C8.51 10.8 8.47 10.77 8.43 10.74C8.4 10.7 8.37 10.65 8.35 10.61C8.33 10.56 8.32 10.51 8.32 10.45C8.29 9.86 8.54 9.42 9.09 9.16C9.16 9.12 9.23 9.09 9.31 9.06C10.05 8.8 10.51 8.07 10.43 7.3C10.34 6.52 9.73 5.89 8.97 5.79C8.91 5.78 8.85 5.78 8.79 5.78C8.73 5.77 8.67 5.78 8.61 5.78C8.55 5.78 8.49 5.79 8.44 5.8C8.38 5.81 8.32 5.83 8.26 5.84C8.21 5.86 8.15 5.88 8.09 5.9C8.04 5.93 7.99 5.95 7.93 5.98C7.88 6.01 7.83 6.04 7.78 6.07C7.73 6.11 7.69 6.14 7.64 6.18C7.6 6.22 7.55 6.26 7.51 6.3C7.47 6.35 7.43 6.39 7.4 6.44C7.36 6.48 7.33 6.53 7.29 6.58C7.26 6.63 7.24 6.69 7.21 6.74C7.18 6.79 7.16 6.85 7.14 6.9C7.12 6.96 7.1 7.02 7.09 7.07C7.08 7.13 7.07 7.19 7.06 7.25C7.05 7.31 7.04 7.37 7.04 7.43C7.04 7.48 7.04 7.54 7.02 7.59C7.01 7.64 6.99 7.68 6.96 7.73C6.93 7.77 6.89 7.8 6.85 7.83C6.81 7.86 6.76 7.88 6.71 7.89C6.67 7.9 6.62 7.9 6.57 7.89C6.51 7.89 6.46 7.87 6.42 7.85C6.37 7.82 6.33 7.79 6.3 7.75C6.26 7.71 6.24 7.67 6.22 7.62C6.2 7.57 6.19 7.51 6.2 7.46C6.2 6.84 6.4 6.28 6.82 5.81C7.5 5.05 8.36 4.76 9.36 5.01C10.36 5.26 10.98 5.93 11.22 6.94C11.26 7.12 11.27 7.3 11.3 7.47C11.27 8.53 10.64 9.46 9.65 9.84C9.57 9.87 9.49 9.91 9.4 9.95ZM8.33 12.06C8.33 12.03 8.34 12.01 8.35 11.98C8.36 11.96 8.38 11.93 8.39 11.91C8.41 11.89 8.42 11.86 8.44 11.84C8.46 11.82 8.49 11.81 8.51 11.79C8.53 11.78 8.56 11.76 8.58 11.75C8.61 11.74 8.63 11.73 8.66 11.73C8.69 11.72 8.72 11.72 8.75 11.72C8.98 11.72 9.17 11.91 9.17 12.14L9.17 12.57C9.17 12.6 9.17 12.63 9.16 12.65C9.16 12.68 9.15 12.71 9.14 12.73C9.13 12.76 9.11 12.78 9.1 12.81C9.08 12.83 9.07 12.85 9.05 12.87C9.03 12.89 9 12.91 8.98 12.92C8.96 12.94 8.93 12.95 8.91 12.96C8.88 12.97 8.86 12.98 8.83 12.99C8.8 12.99 8.77 13 8.75 13C8.51 13 8.32 12.81 8.32 12.57L8.32 12.15C8.32 12.12 8.32 12.09 8.33 12.06Z" stroke="#353533" stroke-opacity="1.000000" stroke-width="0.500000"/>
</svg>
