<svg width="18.622070" height="14.907104" viewBox="0 0 18.6221 14.9071" fill="none" xmlns="http://www.w3.org/2000/svg" xmlns:xlink="http://www.w3.org/1999/xlink">
	<desc>
			Created with Pixso.
	</desc>
	<defs/>
	<path id="path" d="M17.2 1.98L16.95 1.98C16.79 1.98 16.64 2.01 16.5 2.06L16.5 1.83C16.5 0.9 15.75 0.15 14.81 0.15L14.77 0.15C13.84 0.15 13.08 0.9 13.08 1.83L13.08 6.16L5.53 6.16L5.53 1.83C5.53 0.9 4.77 0.15 3.84 0.15L3.8 0.15C2.87 0.15 2.11 0.9 2.11 1.83L2.11 2.06C1.97 2.01 1.82 1.98 1.66 1.98L1.41 1.98C0.71 1.98 0.15 2.54 0.15 3.24L0.15 11.56C0.15 12.26 0.71 12.83 1.41 12.83L1.66 12.83C1.82 12.83 1.97 12.8 2.11 12.75L2.11 13.06C2.11 13.99 2.87 14.75 3.8 14.75L3.84 14.75C4.77 14.75 5.53 13.99 5.53 13.06L5.53 8.77L13.08 8.77L13.08 13.06C13.08 13.99 13.84 14.75 14.77 14.75L14.81 14.75C15.75 14.75 16.5 13.99 16.5 13.06L16.5 12.75C16.64 12.8 16.79 12.83 16.95 12.83L17.2 12.83C17.9 12.83 18.47 12.26 18.47 11.56L18.47 3.24C18.47 2.54 17.9 1.98 17.2 1.98ZM2.09 11.56C2.09 11.79 1.9 11.98 1.66 11.98L1.41 11.98C1.18 11.98 0.99 11.79 0.99 11.56L0.99 3.24C0.99 3.01 1.18 2.82 1.41 2.82L1.66 2.82C1.9 2.82 2.09 3.01 2.09 3.24L2.09 11.56ZM3.84 13.91L3.8 13.91C3.33 13.91 2.95 13.53 2.95 13.06L2.95 1.83C2.95 1.37 3.33 0.99 3.8 0.99L3.84 0.99C4.3 0.99 4.68 1.37 4.68 1.83L4.68 13.06C4.68 13.53 4.3 13.91 3.84 13.91ZM13.06 7.93L5.53 7.93L5.53 7L13.06 7L13.06 7.93ZM15.66 13.06C15.66 13.53 15.28 13.91 14.81 13.91L14.77 13.91C14.31 13.91 13.93 13.53 13.93 13.06L13.93 1.83C13.93 1.37 14.31 0.99 14.77 0.99L14.81 0.99C15.28 0.99 15.66 1.37 15.66 1.83L15.66 13.06ZM17.62 11.56C17.62 11.79 17.43 11.98 17.2 11.98L16.95 11.98C16.71 11.98 16.53 11.79 16.53 11.56L16.53 3.24C16.53 3.01 16.71 2.82 16.95 2.82L17.2 2.82C17.43 2.82 17.62 3.01 17.62 3.24L17.62 11.56Z" fill="#353533" fill-opacity="1.000000" fill-rule="nonzero"/>
	<path id="path" d="M16.95 1.98C16.79 1.98 16.64 2.01 16.5 2.06L16.5 1.83C16.5 0.9 15.75 0.15 14.81 0.15L14.77 0.15C13.84 0.15 13.08 0.9 13.08 1.83L13.08 6.16L5.53 6.16L5.53 1.83C5.53 0.9 4.77 0.15 3.84 0.15L3.8 0.15C2.87 0.15 2.11 0.9 2.11 1.83L2.11 2.06C1.97 2.01 1.82 1.98 1.66 1.98L1.41 1.98C0.71 1.98 0.15 2.54 0.15 3.24L0.15 11.56C0.15 12.26 0.71 12.83 1.41 12.83L1.66 12.83C1.82 12.83 1.97 12.8 2.11 12.75L2.11 13.06C2.11 13.99 2.87 14.75 3.8 14.75L3.84 14.75C4.77 14.75 5.53 13.99 5.53 13.06L5.53 8.77L13.08 8.77L13.08 13.06C13.08 13.99 13.84 14.75 14.77 14.75L14.81 14.75C15.75 14.75 16.5 13.99 16.5 13.06L16.5 12.75C16.64 12.8 16.79 12.83 16.95 12.83L17.2 12.83C17.9 12.83 18.47 12.26 18.47 11.56L18.47 3.24C18.47 2.54 17.9 1.98 17.2 1.98L16.95 1.98ZM1.66 11.98L1.41 11.98C1.18 11.98 0.99 11.79 0.99 11.56L0.99 3.24C0.99 3.01 1.18 2.82 1.41 2.82L1.66 2.82C1.9 2.82 2.09 3.01 2.09 3.24L2.09 11.56C2.09 11.79 1.9 11.98 1.66 11.98ZM3.8 13.91C3.33 13.91 2.95 13.53 2.95 13.06L2.95 1.83C2.95 1.37 3.33 0.99 3.8 0.99L3.84 0.99C4.3 0.99 4.68 1.37 4.68 1.83L4.68 13.06C4.68 13.53 4.3 13.91 3.84 13.91L3.8 13.91ZM5.53 7.93L5.53 7L13.06 7L13.06 7.93L5.53 7.93ZM14.81 13.91L14.77 13.91C14.31 13.91 13.93 13.53 13.93 13.06L13.93 1.83C13.93 1.37 14.31 0.99 14.77 0.99L14.81 0.99C15.28 0.99 15.66 1.37 15.66 1.83L15.66 13.06C15.66 13.53 15.28 13.91 14.81 13.91ZM17.2 11.98L16.95 11.98C16.71 11.98 16.53 11.79 16.53 11.56L16.53 3.24C16.53 3.01 16.71 2.82 16.95 2.82L17.2 2.82C17.43 2.82 17.62 3.01 17.62 3.24L17.62 11.56C17.62 11.79 17.43 11.98 17.2 11.98Z" stroke="#353533" stroke-opacity="1.000000" stroke-width="0.300000"/>
</svg>
