<svg width="17.000000" height="17.000000" viewBox="0 0 17 17" fill="none" xmlns="http://www.w3.org/2000/svg" xmlns:xlink="http://www.w3.org/1999/xlink">
	<desc>
			Created with Pixso.
	</desc>
	<defs>
		<clipPath id="clip184_29">
			<rect id="svg" rx="0.000000" width="16.000000" height="16.000000" transform="translate(0.500000 0.500000)" fill="white" fill-opacity="0"/>
		</clipPath>
	</defs>
	<g clip-path="url(#clip184_29)">
		<path id="path" d="M14.66 1.38L2.33 1.38C1.48 1.38 0.79 2.07 0.79 2.86L0.79 12.53C0.79 13.33 1.48 14.02 2.33 14.02L6.58 14.02C6.58 14.02 6.69 14.13 6.85 14.34C6.9 14.39 6.95 14.45 7.01 14.55C7.01 14.55 7.11 14.71 7.17 14.76C7.65 15.51 8.02 15.88 8.6 15.88C9.19 15.88 9.61 15.51 10.09 14.76C10.46 14.18 10.57 14.02 10.57 14.02L14.71 14.02C15.56 14.02 16.25 13.33 16.25 12.53L16.25 2.86C16.2 2.01 15.51 1.38 14.66 1.38ZM15.45 12.53C15.45 12.96 15.14 13.28 14.71 13.28L10.51 13.28C10.41 13.28 10.35 13.28 10.25 13.33C10.09 13.44 9.93 13.54 9.77 13.81C9.72 13.91 9.4 14.39 9.4 14.39C9.08 14.92 8.81 15.14 8.6 15.14C8.39 15.14 8.18 14.92 7.8 14.39C7.75 14.34 7.7 14.18 7.65 14.18C7.59 14.07 7.54 14.02 7.49 13.97C7.17 13.54 6.95 13.33 6.58 13.33L2.33 13.33C1.91 13.33 1.59 13.01 1.59 12.59L1.59 2.92C1.59 2.49 1.96 2.17 2.39 2.17L14.71 2.17C15.14 2.17 15.51 2.49 15.51 2.92L15.51 12.53L15.45 12.53Z" fill="#353533" fill-opacity="1.000000" fill-rule="nonzero"/>
		<path id="path" d="M2.33 1.38C1.48 1.38 0.79 2.07 0.79 2.86L0.79 12.53C0.79 13.33 1.48 14.02 2.33 14.02L6.58 14.02C6.58 14.02 6.69 14.13 6.85 14.34C6.9 14.39 6.95 14.45 7.01 14.55C7.01 14.55 7.11 14.71 7.17 14.76C7.65 15.51 8.02 15.88 8.6 15.88C9.19 15.88 9.61 15.51 10.09 14.76C10.46 14.18 10.57 14.02 10.57 14.02L14.71 14.02C15.56 14.02 16.25 13.33 16.25 12.53L16.25 2.86C16.2 2.01 15.51 1.38 14.66 1.38L2.33 1.38ZM14.71 13.28L10.51 13.28C10.41 13.28 10.35 13.28 10.25 13.33C10.09 13.44 9.93 13.54 9.77 13.81C9.72 13.91 9.4 14.39 9.4 14.39C9.08 14.92 8.81 15.14 8.6 15.14C8.39 15.14 8.18 14.92 7.8 14.39C7.75 14.34 7.7 14.18 7.65 14.18C7.59 14.07 7.54 14.02 7.49 13.97C7.17 13.54 6.95 13.33 6.58 13.33L2.33 13.33C1.91 13.33 1.59 13.01 1.59 12.59L1.59 2.92C1.59 2.49 1.96 2.17 2.39 2.17L14.71 2.17C15.14 2.17 15.51 2.49 15.51 2.92L15.51 12.53L15.45 12.53C15.45 12.96 15.14 13.28 14.71 13.28Z" stroke="#353533" stroke-opacity="1.000000" stroke-width="0.500000"/>
		<path id="path" d="M3.66 8.02C3.66 8.07 3.67 8.13 3.68 8.18C3.69 8.24 3.7 8.29 3.73 8.34C3.75 8.39 3.77 8.44 3.8 8.49C3.83 8.54 3.87 8.58 3.91 8.62C3.95 8.66 3.99 8.69 4.04 8.72C4.08 8.75 4.13 8.78 4.19 8.8C4.24 8.82 4.29 8.84 4.34 8.85C4.4 8.86 4.45 8.87 4.51 8.87C4.57 8.87 4.62 8.86 4.68 8.85C4.73 8.84 4.78 8.82 4.84 8.8C4.89 8.78 4.94 8.75 4.98 8.72C5.03 8.69 5.07 8.66 5.11 8.62C5.15 8.58 5.19 8.54 5.22 8.49C5.25 8.44 5.27 8.39 5.3 8.34C5.32 8.29 5.33 8.24 5.34 8.18C5.36 8.13 5.36 8.07 5.36 8.02C5.36 7.96 5.36 7.91 5.34 7.85C5.33 7.8 5.32 7.74 5.3 7.69C5.27 7.64 5.25 7.59 5.22 7.54C5.19 7.5 5.15 7.46 5.11 7.42C5.07 7.38 5.03 7.34 4.98 7.31C4.94 7.28 4.89 7.25 4.84 7.23C4.78 7.21 4.73 7.19 4.68 7.18C4.62 7.17 4.57 7.17 4.51 7.17C4.45 7.17 4.4 7.17 4.34 7.18C4.29 7.19 4.24 7.21 4.19 7.23C4.13 7.25 4.08 7.28 4.04 7.31C3.99 7.34 3.95 7.38 3.91 7.42C3.87 7.46 3.83 7.5 3.8 7.54C3.77 7.59 3.75 7.64 3.73 7.69C3.7 7.74 3.69 7.8 3.68 7.85C3.67 7.91 3.66 7.96 3.66 8.02Z" fill="#353533" fill-opacity="1.000000" fill-rule="nonzero"/>
		<path id="path" d="M3.68 8.18C3.69 8.24 3.7 8.29 3.73 8.34C3.75 8.39 3.77 8.44 3.8 8.49C3.83 8.54 3.87 8.58 3.91 8.62C3.95 8.66 3.99 8.69 4.04 8.72C4.08 8.75 4.13 8.78 4.19 8.8C4.24 8.82 4.29 8.84 4.34 8.85C4.4 8.86 4.45 8.87 4.51 8.87C4.57 8.87 4.62 8.86 4.68 8.85C4.73 8.84 4.78 8.82 4.84 8.8C4.89 8.78 4.94 8.75 4.98 8.72C5.03 8.69 5.07 8.66 5.11 8.62C5.15 8.58 5.19 8.54 5.22 8.49C5.25 8.44 5.27 8.39 5.3 8.34C5.32 8.29 5.33 8.24 5.34 8.18C5.36 8.13 5.36 8.07 5.36 8.02C5.36 7.96 5.36 7.91 5.34 7.85C5.33 7.8 5.32 7.74 5.3 7.69C5.27 7.64 5.25 7.59 5.22 7.54C5.19 7.5 5.15 7.46 5.11 7.42C5.07 7.38 5.03 7.34 4.98 7.31C4.94 7.28 4.89 7.25 4.84 7.23C4.78 7.21 4.73 7.19 4.68 7.18C4.62 7.17 4.57 7.17 4.51 7.17C4.45 7.17 4.4 7.17 4.34 7.18C4.29 7.19 4.24 7.21 4.19 7.23C4.13 7.25 4.08 7.28 4.04 7.31C3.99 7.34 3.95 7.38 3.91 7.42C3.87 7.46 3.83 7.5 3.8 7.54C3.77 7.59 3.75 7.64 3.73 7.69C3.7 7.74 3.69 7.8 3.68 7.85C3.67 7.91 3.66 7.96 3.66 8.02C3.66 8.07 3.67 8.13 3.68 8.18Z" stroke="#353533" stroke-opacity="1.000000" stroke-width="0.300000"/>
		<path id="path" d="M7.65 8.02C7.65 8.07 7.65 8.13 7.66 8.18C7.67 8.24 7.69 8.29 7.71 8.34C7.73 8.39 7.76 8.44 7.79 8.49C7.82 8.54 7.85 8.58 7.89 8.62C7.93 8.66 7.98 8.69 8.02 8.72C8.07 8.75 8.12 8.78 8.17 8.8C8.22 8.82 8.27 8.84 8.33 8.85C8.38 8.86 8.44 8.87 8.5 8.87C8.55 8.87 8.61 8.86 8.66 8.85C8.72 8.84 8.77 8.82 8.82 8.8C8.87 8.78 8.92 8.75 8.97 8.72C9.01 8.69 9.06 8.66 9.1 8.62C9.14 8.58 9.17 8.54 9.2 8.49C9.23 8.44 9.26 8.39 9.28 8.34C9.3 8.29 9.32 8.24 9.33 8.18C9.34 8.13 9.35 8.07 9.35 8.02C9.35 7.96 9.34 7.91 9.33 7.85C9.32 7.8 9.3 7.74 9.28 7.69C9.26 7.64 9.23 7.59 9.2 7.54C9.17 7.5 9.14 7.46 9.1 7.42C9.06 7.38 9.01 7.34 8.97 7.31C8.92 7.28 8.87 7.25 8.82 7.23C8.77 7.21 8.72 7.19 8.66 7.18C8.61 7.17 8.55 7.17 8.5 7.17C8.44 7.17 8.38 7.17 8.33 7.18C8.27 7.19 8.22 7.21 8.17 7.23C8.12 7.25 8.07 7.28 8.02 7.31C7.98 7.34 7.93 7.38 7.89 7.42C7.85 7.46 7.82 7.5 7.79 7.54C7.76 7.59 7.73 7.64 7.71 7.69C7.69 7.74 7.67 7.8 7.66 7.85C7.65 7.91 7.65 7.96 7.65 8.02Z" fill="#353533" fill-opacity="1.000000" fill-rule="nonzero"/>
		<path id="path" d="M7.66 8.18C7.67 8.24 7.69 8.29 7.71 8.34C7.73 8.39 7.76 8.44 7.79 8.49C7.82 8.54 7.85 8.58 7.89 8.62C7.93 8.66 7.98 8.69 8.02 8.72C8.07 8.75 8.12 8.78 8.17 8.8C8.22 8.82 8.27 8.84 8.33 8.85C8.38 8.86 8.44 8.87 8.5 8.87C8.55 8.87 8.61 8.86 8.66 8.85C8.72 8.84 8.77 8.82 8.82 8.8C8.87 8.78 8.92 8.75 8.97 8.72C9.01 8.69 9.06 8.66 9.1 8.62C9.14 8.58 9.17 8.54 9.2 8.49C9.23 8.44 9.26 8.39 9.28 8.34C9.3 8.29 9.32 8.24 9.33 8.18C9.34 8.13 9.35 8.07 9.35 8.02C9.35 7.96 9.34 7.91 9.33 7.85C9.32 7.8 9.3 7.74 9.28 7.69C9.26 7.64 9.23 7.59 9.2 7.54C9.17 7.5 9.14 7.46 9.1 7.42C9.06 7.38 9.01 7.34 8.97 7.31C8.92 7.28 8.87 7.25 8.82 7.23C8.77 7.21 8.72 7.19 8.66 7.18C8.61 7.17 8.55 7.17 8.5 7.17C8.44 7.17 8.38 7.17 8.33 7.18C8.27 7.19 8.22 7.21 8.17 7.23C8.12 7.25 8.07 7.28 8.02 7.31C7.98 7.34 7.93 7.38 7.89 7.42C7.85 7.46 7.82 7.5 7.79 7.54C7.76 7.59 7.73 7.64 7.71 7.69C7.69 7.74 7.67 7.8 7.66 7.85C7.65 7.91 7.65 7.96 7.65 8.02C7.65 8.07 7.65 8.13 7.66 8.18Z" stroke="#353533" stroke-opacity="1.000000" stroke-width="0.300000"/>
		<path id="path" d="M11.58 8.02C11.58 8.07 11.58 8.13 11.59 8.18C11.6 8.24 11.62 8.29 11.64 8.34C11.66 8.39 11.69 8.44 11.72 8.49C11.75 8.54 11.79 8.58 11.83 8.62C11.86 8.66 11.91 8.69 11.95 8.72C12 8.75 12.05 8.78 12.1 8.8C12.15 8.82 12.21 8.84 12.26 8.85C12.32 8.86 12.37 8.87 12.43 8.87C12.48 8.87 12.54 8.86 12.59 8.85C12.65 8.84 12.7 8.82 12.75 8.8C12.8 8.78 12.85 8.75 12.9 8.72C12.95 8.69 12.99 8.66 13.03 8.62C13.07 8.58 13.1 8.54 13.13 8.49C13.16 8.44 13.19 8.39 13.21 8.34C13.23 8.29 13.25 8.24 13.26 8.18C13.27 8.13 13.28 8.07 13.28 8.02C13.28 7.96 13.27 7.91 13.26 7.85C13.25 7.8 13.23 7.74 13.21 7.69C13.19 7.64 13.16 7.59 13.13 7.54C13.1 7.5 13.07 7.46 13.03 7.42C12.99 7.38 12.95 7.34 12.9 7.31C12.85 7.28 12.8 7.25 12.75 7.23C12.7 7.21 12.65 7.19 12.59 7.18C12.54 7.17 12.48 7.17 12.43 7.17C12.37 7.17 12.32 7.17 12.26 7.18C12.21 7.19 12.15 7.21 12.1 7.23C12.05 7.25 12 7.28 11.95 7.31C11.91 7.34 11.86 7.38 11.83 7.42C11.79 7.46 11.75 7.5 11.72 7.54C11.69 7.59 11.66 7.64 11.64 7.69C11.62 7.74 11.6 7.8 11.59 7.85C11.58 7.91 11.58 7.96 11.58 8.02Z" fill="#353533" fill-opacity="1.000000" fill-rule="nonzero"/>
		<path id="path" d="M11.59 8.18C11.6 8.24 11.62 8.29 11.64 8.34C11.66 8.39 11.69 8.44 11.72 8.49C11.75 8.54 11.79 8.58 11.83 8.62C11.86 8.66 11.91 8.69 11.95 8.72C12 8.75 12.05 8.78 12.1 8.8C12.15 8.82 12.21 8.84 12.26 8.85C12.32 8.86 12.37 8.87 12.43 8.87C12.48 8.87 12.54 8.86 12.59 8.85C12.65 8.84 12.7 8.82 12.75 8.8C12.8 8.78 12.85 8.75 12.9 8.72C12.95 8.69 12.99 8.66 13.03 8.62C13.07 8.58 13.1 8.54 13.13 8.49C13.16 8.44 13.19 8.39 13.21 8.34C13.23 8.29 13.25 8.24 13.26 8.18C13.27 8.13 13.28 8.07 13.28 8.02C13.28 7.96 13.27 7.91 13.26 7.85C13.25 7.8 13.23 7.74 13.21 7.69C13.19 7.64 13.16 7.59 13.13 7.54C13.1 7.5 13.07 7.46 13.03 7.42C12.99 7.38 12.95 7.34 12.9 7.31C12.85 7.28 12.8 7.25 12.75 7.23C12.7 7.21 12.65 7.19 12.59 7.18C12.54 7.17 12.48 7.17 12.43 7.17C12.37 7.17 12.32 7.17 12.26 7.18C12.21 7.19 12.15 7.21 12.1 7.23C12.05 7.25 12 7.28 11.95 7.31C11.91 7.34 11.86 7.38 11.83 7.42C11.79 7.46 11.75 7.5 11.72 7.54C11.69 7.59 11.66 7.64 11.64 7.69C11.62 7.74 11.6 7.8 11.59 7.85C11.58 7.91 11.58 7.96 11.58 8.02C11.58 8.07 11.58 8.13 11.59 8.18Z" stroke="#353533" stroke-opacity="1.000000" stroke-width="0.300000"/>
	</g>
	<rect id="svg" rx="0.000000" width="16.000000" height="16.000000" transform="translate(0.500000 0.500000)" stroke="#000000" stroke-opacity="0" stroke-width="1.000000"/>
</svg>
