<svg width="15.941345" height="19.204468" viewBox="0 0 15.9413 19.2045" fill="none" xmlns="http://www.w3.org/2000/svg" xmlns:xlink="http://www.w3.org/1999/xlink">
	<desc>
			Created with Pixso.
	</desc>
	<defs/>
	<path id="path" d="M3.83 8.9L12.12 8.9L12.12 9.83L3.83 9.83L3.83 8.9ZM3.83 13.04L8.9 13.04L8.9 13.97L3.83 13.97L3.83 13.04ZM13.95 19.05L1.99 19.05C1.74 19.05 1.5 19 1.27 18.9C1.05 18.81 0.85 18.68 0.68 18.51C0.52 18.34 0.38 18.14 0.29 17.93C0.19 17.7 0.15 17.46 0.15 17.21L0.15 4.76C0.15 4.51 0.19 4.27 0.29 4.04C0.38 3.82 0.52 3.63 0.68 3.46C0.85 3.29 1.05 3.16 1.27 3.06C1.5 2.97 1.74 2.92 1.99 2.92L3.8 2.92L3.8 3.84L1.99 3.84C1.48 3.84 1.07 4.25 1.07 4.76L1.07 17.21C1.07 17.72 1.48 18.13 1.99 18.13L13.95 18.13C14.45 18.13 14.87 17.72 14.87 17.21L14.87 4.76C14.87 4.25 14.45 3.84 13.95 3.84L12.14 3.84L12.14 2.92L13.95 2.92C14.19 2.92 14.44 2.97 14.66 3.06C14.88 3.16 15.08 3.29 15.25 3.46C15.42 3.63 15.55 3.82 15.64 4.04C15.74 4.27 15.79 4.51 15.79 4.76L15.79 17.21C15.79 17.46 15.74 17.7 15.64 17.93C15.55 18.14 15.42 18.34 15.25 18.51C15.08 18.68 14.88 18.81 14.66 18.9C14.44 19 14.19 19.05 13.95 19.05ZM12.57 5.68L3.37 5.68L3.37 2.69C3.37 2.06 3.88 1.54 4.52 1.54L5.7 1.54C6.13 0.69 7 0.15 7.97 0.15C8.93 0.15 9.8 0.69 10.23 1.54L11.42 1.54C12.05 1.54 12.57 2.06 12.57 2.69L12.57 5.68ZM4.29 4.76L11.65 4.76L11.65 2.69C11.65 2.56 11.54 2.46 11.42 2.46L9.59 2.46L9.49 2.15C9.26 1.5 8.65 1.07 7.97 1.07C7.28 1.07 6.67 1.5 6.44 2.15L6.34 2.46L4.52 2.46C4.39 2.46 4.29 2.56 4.29 2.69L4.29 4.76Z" fill="#353533" fill-opacity="1.000000" fill-rule="nonzero"/>
	<path id="path" d="M12.12 8.9L12.12 9.83L3.83 9.83L3.83 8.9L12.12 8.9ZM8.9 13.04L8.9 13.97L3.83 13.97L3.83 13.04L8.9 13.04ZM1.99 19.05C1.74 19.05 1.5 19 1.27 18.9C1.05 18.81 0.85 18.68 0.68 18.51C0.52 18.34 0.38 18.14 0.29 17.93C0.19 17.7 0.15 17.46 0.15 17.21L0.15 4.76C0.15 4.51 0.19 4.27 0.29 4.04C0.38 3.82 0.52 3.63 0.68 3.46C0.85 3.29 1.05 3.16 1.27 3.06C1.5 2.97 1.74 2.92 1.99 2.92L3.8 2.92L3.8 3.84L1.99 3.84C1.48 3.84 1.07 4.25 1.07 4.76L1.07 17.21C1.07 17.72 1.48 18.13 1.99 18.13L13.95 18.13C14.45 18.13 14.87 17.72 14.87 17.21L14.87 4.76C14.87 4.25 14.45 3.84 13.95 3.84L12.14 3.84L12.14 2.92L13.95 2.92C14.19 2.92 14.44 2.97 14.66 3.06C14.88 3.16 15.08 3.29 15.25 3.46C15.42 3.63 15.55 3.82 15.64 4.04C15.74 4.27 15.79 4.51 15.79 4.76L15.79 17.21C15.79 17.46 15.74 17.7 15.64 17.93C15.55 18.14 15.42 18.34 15.25 18.51C15.08 18.68 14.88 18.81 14.66 18.9C14.44 19 14.19 19.05 13.95 19.05L1.99 19.05ZM3.37 5.68L3.37 2.69C3.37 2.06 3.88 1.54 4.52 1.54L5.7 1.54C6.13 0.69 7 0.15 7.97 0.15C8.93 0.15 9.8 0.69 10.23 1.54L11.42 1.54C12.05 1.54 12.57 2.06 12.57 2.69L12.57 5.68L3.37 5.68ZM11.65 4.76L11.65 2.69C11.65 2.56 11.54 2.46 11.42 2.46L9.59 2.46L9.49 2.15C9.26 1.5 8.65 1.07 7.97 1.07C7.28 1.07 6.67 1.5 6.44 2.15L6.34 2.46L4.52 2.46C4.39 2.46 4.29 2.56 4.29 2.69L4.29 4.76L11.65 4.76Z" stroke="#353533" stroke-opacity="1.000000" stroke-width="0.300000"/>
</svg>
