<svg width="20.000000" height="20.000000" viewBox="0 0 20 20" fill="none" xmlns="http://www.w3.org/2000/svg" xmlns:xlink="http://www.w3.org/1999/xlink">
	<desc>
			Created with Pixso.
	</desc>
	<defs>
		<clipPath id="clip187_365">
			<rect id="svg" width="20.000000" height="20.000000" fill="white" fill-opacity="0"/>
		</clipPath>
	</defs>
	<g clip-path="url(#clip187_365)">
		<path id="path" d="M17.51 2.05L5.01 2.05C3.8 2.05 2.82 2.98 2.82 4.14L2.82 6.41C2.82 6.75 3.1 7.03 3.45 7.03C3.79 7.03 4.07 6.75 4.07 6.41L4.07 4.14C4.07 3.67 4.49 3.3 5.01 3.3L17.51 3.3C18.03 3.3 18.45 3.67 18.45 4.14L18.45 15.85C18.45 16.32 18.03 16.69 17.51 16.69L5.01 16.69C4.49 16.69 4.07 16.32 4.07 15.85L4.07 13.51C4.07 13.16 3.79 12.88 3.45 12.88C3.1 12.88 2.82 13.16 2.82 13.51L2.82 15.85C2.82 17.01 3.8 17.94 5.01 17.94L17.51 17.94C18.72 17.94 19.7 17.01 19.7 15.85L19.7 4.14C19.7 2.98 18.72 2.05 17.51 2.05Z" fill="#353533" fill-opacity="1.000000" fill-rule="nonzero"/>
		<path id="path" d="M13.94 10.61L10.91 13.64C10.67 13.88 10.67 14.28 10.91 14.52C11.16 14.77 11.56 14.77 11.8 14.52L15.89 10.44C16.13 10.19 16.13 9.8 15.89 9.55L11.8 5.47C11.55 5.22 11.16 5.22 10.91 5.47C10.67 5.71 10.67 6.11 10.91 6.35L13.93 9.36L0.96 9.36C0.94 9.36 0.93 9.36 0.92 9.36C0.57 9.36 0.29 9.64 0.29 9.99C0.29 10.33 0.57 10.61 0.91 10.61L13.94 10.61Z" fill="#353533" fill-opacity="1.000000" fill-rule="nonzero"/>
	</g>
</svg>
