<svg width="14.000000" height="15.000000" viewBox="0 0 14 15" fill="none" xmlns="http://www.w3.org/2000/svg" xmlns:xlink="http://www.w3.org/1999/xlink">
	<desc>
			Created with Pixso.
	</desc>
	<defs/>
	<path id="path" d="M9.83 0C9.89 0 9.96 0 10.02 0.01C10.08 0.02 10.14 0.04 10.19 0.06C10.25 0.08 10.31 0.11 10.36 0.14C10.41 0.17 10.46 0.21 10.5 0.25C10.55 0.29 10.58 0.34 10.62 0.38C10.65 0.43 10.68 0.48 10.71 0.53C10.73 0.59 10.75 0.64 10.76 0.7C10.77 0.75 10.78 0.81 10.78 0.87C10.78 0.92 10.77 0.98 10.76 1.04C10.75 1.09 10.73 1.15 10.71 1.2C10.68 1.25 10.65 1.3 10.62 1.35C10.58 1.4 10.55 1.44 10.5 1.48C10.46 1.52 10.41 1.56 10.36 1.59C10.31 1.62 10.25 1.65 10.19 1.67C10.14 1.69 10.08 1.71 10.02 1.72C9.96 1.73 9.89 1.74 9.83 1.74L8.13 1.74L8.13 2.17C11.46 2.67 14 5.33 14 8.54C14 8.65 13.99 8.75 13.99 8.86C13.98 8.96 13.97 9.07 13.96 9.17C13.95 9.28 13.94 9.38 13.92 9.49C13.9 9.59 13.88 9.7 13.86 9.8C13.84 9.9 13.81 10.01 13.79 10.11C13.76 10.21 13.73 10.31 13.69 10.41C13.66 10.52 13.62 10.62 13.59 10.72C13.55 10.82 13.51 10.91 13.46 11.01C13.42 11.11 13.37 11.21 13.32 11.3C13.27 11.4 13.22 11.49 13.17 11.58C13.11 11.68 13.06 11.77 13 11.86C12.94 11.95 12.88 12.04 12.82 12.13C12.75 12.21 12.69 12.3 12.62 12.39C12.55 12.47 12.48 12.55 12.41 12.64C12.33 12.72 12.26 12.8 12.18 12.88C12.1 12.95 12.03 13.03 11.94 13.1C11.86 13.18 11.78 13.25 11.7 13.32C11.61 13.39 11.52 13.46 11.44 13.53C11.35 13.6 11.26 13.66 11.16 13.73C11.07 13.79 10.98 13.85 10.88 13.91C10.79 13.97 10.69 14.02 10.59 14.08C10.5 14.13 10.4 14.18 10.29 14.23C10.19 14.28 10.09 14.33 9.99 14.38C9.88 14.42 9.78 14.46 9.67 14.5C9.57 14.54 9.46 14.58 9.35 14.62C9.25 14.65 9.14 14.69 9.03 14.72C8.92 14.75 8.81 14.78 8.7 14.8C8.58 14.83 8.47 14.85 8.36 14.87C8.25 14.89 8.14 14.91 8.02 14.93C7.91 14.94 7.8 14.95 7.68 14.96C7.57 14.97 7.45 14.98 7.34 14.99C7.22 14.99 7.11 15 7 15C6.88 15 6.77 14.99 6.65 14.99C6.54 14.98 6.42 14.97 6.31 14.96C6.19 14.95 6.08 14.94 5.97 14.93C5.85 14.91 5.74 14.89 5.63 14.87C5.52 14.85 5.41 14.83 5.29 14.8C5.18 14.78 5.07 14.75 4.96 14.72C4.85 14.69 4.74 14.65 4.64 14.62C4.53 14.58 4.42 14.54 4.32 14.5C4.21 14.46 4.11 14.42 4 14.38C3.9 14.33 3.8 14.28 3.7 14.23C3.59 14.18 3.49 14.13 3.4 14.08C3.3 14.02 3.2 13.97 3.11 13.91C3.01 13.85 2.92 13.79 2.83 13.73C2.73 13.66 2.64 13.6 2.55 13.53C2.47 13.46 2.38 13.39 2.29 13.32C2.21 13.25 2.13 13.18 2.05 13.1C1.96 13.03 1.89 12.95 1.81 12.88C1.73 12.8 1.66 12.72 1.58 12.64C1.51 12.55 1.44 12.47 1.37 12.39C1.3 12.3 1.24 12.21 1.17 12.13C1.11 12.04 1.05 11.95 0.99 11.86C0.93 11.77 0.88 11.68 0.82 11.58C0.77 11.49 0.72 11.4 0.67 11.3C0.62 11.21 0.57 11.11 0.53 11.01C0.48 10.91 0.44 10.82 0.4 10.72C0.37 10.62 0.33 10.52 0.3 10.41C0.26 10.31 0.23 10.21 0.2 10.11C0.18 10.01 0.15 9.9 0.13 9.8C0.11 9.7 0.09 9.59 0.07 9.49C0.05 9.38 0.04 9.28 0.03 9.17C0.02 9.07 0.01 8.96 0 8.86C0 8.75 0 8.65 0 8.54C0 5.33 2.53 2.67 5.86 2.17L5.86 1.74L4.16 1.74C4.1 1.74 4.03 1.73 3.97 1.72C3.91 1.71 3.85 1.69 3.8 1.67C3.74 1.65 3.68 1.62 3.63 1.59C3.58 1.56 3.53 1.52 3.49 1.48C3.44 1.44 3.4 1.4 3.37 1.35C3.34 1.3 3.31 1.25 3.28 1.2C3.26 1.15 3.24 1.09 3.23 1.04C3.22 0.98 3.21 0.92 3.21 0.87C3.21 0.81 3.22 0.75 3.23 0.7C3.24 0.64 3.26 0.59 3.28 0.53C3.31 0.48 3.34 0.43 3.37 0.38C3.4 0.33 3.44 0.29 3.49 0.25C3.53 0.21 3.58 0.17 3.63 0.14C3.68 0.11 3.74 0.08 3.8 0.06C3.85 0.04 3.91 0.02 3.97 0.01C4.03 0 4.1 0 4.16 0L9.83 0ZM9.04 5.55L8.96 5.61L7.29 7.15C7.23 7.12 7.16 7.1 7.09 7.09C7.02 7.07 6.95 7.06 6.88 7.05C6.81 7.04 6.74 7.03 6.67 7.03C6.6 7.03 6.53 7.03 6.46 7.04C6.39 7.04 6.32 7.05 6.25 7.06C6.18 7.08 6.11 7.09 6.04 7.11C5.98 7.13 5.91 7.16 5.84 7.18C5.78 7.21 5.72 7.24 5.66 7.27C5.59 7.31 5.54 7.34 5.48 7.38C5.42 7.42 5.37 7.46 5.32 7.51C5.27 7.55 5.22 7.6 5.17 7.65C5.13 7.7 5.08 7.75 5.04 7.81C5 7.86 4.97 7.92 4.94 7.97C4.9 8.03 4.87 8.09 4.85 8.15C4.82 8.21 4.8 8.28 4.78 8.34C4.77 8.4 4.75 8.47 4.74 8.53C4.73 8.59 4.73 8.66 4.72 8.72C4.72 8.79 4.72 8.86 4.73 8.92C4.74 8.99 4.75 9.05 4.76 9.11C4.77 9.18 4.79 9.24 4.81 9.3C4.83 9.37 4.86 9.43 4.89 9.49C4.92 9.55 4.95 9.6 4.99 9.66C5.02 9.72 5.06 9.77 5.1 9.82C5.15 9.88 5.19 9.92 5.24 9.97C5.29 10.02 5.34 10.06 5.39 10.11C5.45 10.15 5.5 10.19 5.56 10.22C5.62 10.26 5.68 10.29 5.75 10.32C5.81 10.35 5.87 10.38 5.94 10.4C6.01 10.43 6.07 10.45 6.14 10.46C6.21 10.48 6.28 10.49 6.35 10.5C6.42 10.51 6.49 10.52 6.56 10.52C6.63 10.52 6.7 10.52 6.77 10.51C6.84 10.51 6.91 10.5 6.98 10.49C7.05 10.47 7.12 10.46 7.19 10.44C7.26 10.42 7.32 10.39 7.39 10.37C7.45 10.34 7.51 10.31 7.58 10.28C7.64 10.25 7.7 10.21 7.75 10.17C7.81 10.13 7.86 10.09 7.91 10.04C7.97 10 8.01 9.95 8.06 9.9C8.11 9.85 8.15 9.8 8.19 9.75C8.23 9.69 8.26 9.64 8.3 9.58C8.33 9.52 8.36 9.46 8.38 9.4C8.41 9.34 8.43 9.28 8.45 9.21C8.47 9.15 8.48 9.09 8.49 9.02C8.5 8.96 8.5 8.89 8.51 8.83C8.51 8.76 8.51 8.7 8.5 8.63C8.5 8.57 8.49 8.5 8.47 8.44C8.46 8.37 8.44 8.31 8.42 8.25L8.37 8.12L10.03 6.59C10.07 6.56 10.1 6.53 10.12 6.49C10.15 6.46 10.17 6.42 10.19 6.38C10.21 6.34 10.23 6.29 10.24 6.25C10.25 6.21 10.25 6.17 10.25 6.12C10.26 6.08 10.25 6.03 10.25 5.99C10.24 5.95 10.23 5.91 10.21 5.86C10.19 5.82 10.17 5.78 10.15 5.75C10.13 5.71 10.1 5.67 10.07 5.64C10.03 5.61 10 5.58 9.96 5.55C9.92 5.52 9.88 5.5 9.84 5.48C9.8 5.46 9.76 5.44 9.71 5.43C9.66 5.42 9.62 5.41 9.57 5.41C9.52 5.4 9.48 5.4 9.43 5.41C9.38 5.41 9.33 5.42 9.29 5.43C9.24 5.44 9.2 5.46 9.16 5.48C9.11 5.5 9.07 5.52 9.04 5.55Z" fill="#353533" fill-opacity="1.000000" fill-rule="nonzero"/>
</svg>
