<svg width="14.000000" height="14.000000" viewBox="0 0 14 14" fill="none" xmlns="http://www.w3.org/2000/svg" xmlns:xlink="http://www.w3.org/1999/xlink">
	<desc>
			Created with Pixso.
	</desc>
	<defs/>
	<path id="path" d="M7 0C3.13 0 0 3.13 0 7C0 10.86 3.13 14 7 14C10.86 14 14 10.86 14 7C14 3.13 10.86 0 7 0ZM8.83 7.7L6.88 7.7C6.49 7.7 6.17 7.39 6.17 7L6.17 3.29C6.17 2.89 6.49 2.57 6.88 2.57C7.27 2.57 7.59 2.89 7.59 3.29L7.59 6.29L8.83 6.29C9.22 6.29 9.54 6.6 9.54 7C9.54 7.39 9.22 7.7 8.83 7.7Z" fill="#353533" fill-opacity="1.000000" fill-rule="nonzero"/>
</svg>
