<svg width="15.000000" height="14.000000" viewBox="0 0 15 14" fill="none" xmlns="http://www.w3.org/2000/svg" xmlns:xlink="http://www.w3.org/1999/xlink">
	<desc>
			Created with Pixso.
	</desc>
	<defs/>
	<path id="path" d="M7.35 1.07L2.34 5.17C2.34 5.18 2.34 5.18 2.34 5.19L2.34 12.76C2.34 12.88 2.43 12.97 2.55 12.97L4.71 12.97C4.82 12.97 4.91 12.88 4.91 12.76L4.91 9.31C4.91 8.63 5.46 8.08 6.13 8.08L8.64 8.08C9.31 8.08 9.85 8.63 9.85 9.31L9.85 12.76C9.85 12.88 9.95 12.97 10.06 12.97L12.15 12.97C12.27 12.97 12.36 12.88 12.36 12.76L12.36 5.19C12.36 5.17 12.36 5.16 12.36 5.14L7.62 1.07C7.54 1.01 7.43 1 7.35 1.07ZM14.82 5.91L8.27 0.29C7.83 -0.09 7.17 -0.1 6.72 0.27L0.18 5.62C-0.04 5.8 -0.07 6.13 0.11 6.34C0.28 6.57 0.6 6.6 0.82 6.42L1.33 6L1.33 12.76C1.33 13.44 1.88 14 2.55 14L4.71 14C5.38 14 5.93 13.44 5.93 12.76L5.93 9.31C5.93 9.2 6.02 9.1 6.13 9.1L8.64 9.1C8.75 9.1 8.84 9.2 8.84 9.31L8.84 12.76C8.84 13.44 9.39 14 10.06 14L12.15 14C12.82 14 13.37 13.44 13.37 12.76L13.37 6.01L14.16 6.69C14.26 6.78 14.37 6.82 14.49 6.82C14.63 6.82 14.77 6.75 14.87 6.63C15.06 6.42 15.03 6.1 14.82 5.91Z" fill="#353533" fill-opacity="1.000000" fill-rule="nonzero"/>
</svg>
