<svg width="15.957443" height="16.000000" viewBox="0 0 15.9574 16" fill="none" xmlns="http://www.w3.org/2000/svg" xmlns:xlink="http://www.w3.org/1999/xlink">
	<desc>
			Created with Pixso.
	</desc>
	<defs>
		<clipPath id="clip227_980">
			<rect id="svg" width="15.957445" height="16.000000" fill="white" fill-opacity="0"/>
		</clipPath>
	</defs>
	<g clip-path="url(#clip227_980)">
		<path id="path" d="M11.51 14.89L2.31 14.89C1.09 14.89 0.1 13.89 0.1 12.67L0.1 3.45C0.1 2.22 1.09 1.23 2.31 1.23L8.51 1.23C8.84 1.23 9.1 1.5 9.1 1.83C9.1 2.16 8.84 2.43 8.51 2.43L2.31 2.43C1.75 2.43 1.3 2.89 1.3 3.45L1.3 12.67C1.3 13.23 1.75 13.69 2.31 13.69L11.51 13.69C12.07 13.69 12.52 13.23 12.52 12.67L12.52 7.87C12.52 7.54 12.79 7.27 13.12 7.27C13.45 7.27 13.72 7.54 13.72 7.87L13.72 12.67C13.72 13.89 12.73 14.89 11.51 14.89Z" fill="#2C2C2C" fill-opacity="1.000000" fill-rule="nonzero"/>
		<path id="path" d="M5.74 12.22C5.41 12.22 5.14 11.95 5.14 11.62L5.14 10.84C5.14 7.12 8.16 4.09 11.87 4.09L15.14 4.09C15.47 4.09 15.74 4.36 15.74 4.69C15.74 5.02 15.47 5.29 15.14 5.29L11.87 5.29C8.82 5.29 6.34 7.78 6.34 10.84L6.34 11.62C6.34 11.95 6.07 12.22 5.74 12.22Z" fill="#2C2C2C" fill-opacity="1.000000" fill-rule="nonzero"/>
		<path id="path" d="M15.26 5.22C15.12 5.22 14.98 5.17 14.86 5.07L11.62 2.19C11.38 1.97 11.35 1.59 11.57 1.35C11.79 1.1 12.17 1.08 12.42 1.3L15.66 4.17C15.9 4.39 15.93 4.77 15.71 5.02C15.59 5.15 15.42 5.22 15.26 5.22Z" fill="#2C2C2C" fill-opacity="1.000000" fill-rule="nonzero"/>
	</g>
</svg>
