<svg width="10.000000" height="10.000000" viewBox="0 0 10 10" fill="none" xmlns="http://www.w3.org/2000/svg" xmlns:xlink="http://www.w3.org/1999/xlink">
	<desc>
			Created with Pixso.
	</desc>
	<defs>
		<clipPath id="clip181_33">
			<rect id="svg" rx="0.000000" width="9.000000" height="9.000000" transform="translate(0.500000 0.500000)" fill="white" fill-opacity="0"/>
		</clipPath>
	</defs>
	<rect id="svg" rx="0.000000" width="9.000000" height="9.000000" transform="translate(0.500000 0.500000)" fill="#FFFFFF" fill-opacity="0"/>
	<g clip-path="url(#clip181_33)">
		<path id="path" d="M5.01 0C2.72 0 0.87 1.85 0.87 4.13C0.87 6.36 4.7 9.79 4.86 9.94C4.9 9.98 4.96 10 5.01 10C5.06 10 5.11 9.98 5.15 9.94C5.32 9.79 9.15 6.36 9.15 4.13C9.15 1.85 7.29 0 5.01 0ZM5.01 9.48C4.31 8.83 1.3 5.94 1.3 4.13C1.3 2.09 2.97 0.43 5.01 0.43C7.05 0.43 8.71 2.09 8.71 4.13C8.71 5.94 5.71 8.83 5.01 9.48Z" fill="#ACAAAA" fill-opacity="1.000000" fill-rule="nonzero"/>
		<path id="path" d="M5.01 1.95C3.81 1.95 2.83 2.93 2.83 4.12C2.83 5.32 3.81 6.3 5.01 6.3C6.21 6.3 7.19 5.32 7.19 4.13C7.19 2.93 6.21 1.95 5.01 1.95ZM5.01 5.86C4.05 5.86 3.26 5.08 3.26 4.12C3.26 3.17 4.05 2.39 5.01 2.39C5.97 2.39 6.75 3.17 6.75 4.13C6.75 5.08 5.97 5.86 5.01 5.86Z" fill="#ACAAAA" fill-opacity="1.000000" fill-rule="nonzero"/>
	</g>
	<rect id="svg" rx="0.000000" width="9.000000" height="9.000000" transform="translate(0.500000 0.500000)" stroke="#000000" stroke-opacity="0" stroke-width="1.000000"/>
</svg>
