<svg width="16.000000" height="16.000000" viewBox="0 0 16 16" fill="none" xmlns="http://www.w3.org/2000/svg" xmlns:xlink="http://www.w3.org/1999/xlink">
	<desc>
			Created with Pixso.
	</desc>
	<defs>
		<clipPath id="clip227_786">
			<rect id="svg" width="16.000000" height="16.000000" fill="white" fill-opacity="0"/>
		</clipPath>
	</defs>
	<g clip-path="url(#clip227_786)">
		<path id="path" d="M5.65 8.86C5.49 8.46 5.37 8 5.3 7.48C5.19 6.64 5.2 5.73 5.29 4.88C5.3 4.75 5.31 4.64 5.33 4.53L5.63 4.4L6.09 4.51L6.97 5.35C7 5.37 7.03 5.39 7.07 5.41C7.1 5.43 7.14 5.44 7.18 5.44C7.22 5.44 7.26 5.43 7.3 5.42C7.34 5.41 7.37 5.39 7.41 5.36L8.97 4.11C8.98 4.1 9 4.08 9.01 4.07C9.02 4.05 9.04 4.04 9.05 4.02C9.06 4 9.07 3.98 9.07 3.96C9.08 3.94 9.08 3.92 9.09 3.9C9.09 3.88 9.09 3.86 9.09 3.84C9.09 3.82 9.09 3.8 9.08 3.77C9.08 3.75 9.07 3.73 9.06 3.72C9.05 3.7 9.04 3.68 9.03 3.66L8.16 2.43C8.1 2.3 7.98 2.15 7.78 2.02C7.45 1.79 6.97 1.65 6.34 1.65C5.72 1.65 5.11 1.8 4.54 2.03C4.2 2.17 3.94 2.31 3.8 2.41C3.76 2.44 3.73 2.47 3.7 2.51C3.68 2.54 3.65 2.59 3.6 2.67C3.52 2.8 3.44 2.95 3.34 3.13C3.06 3.67 2.8 4.22 2.57 4.79C1.64 7.11 1.21 9.58 1.57 12.02C1.58 12.07 1.59 12.11 1.61 12.15C1.64 12.19 1.67 12.22 1.7 12.25C4.4 14.21 7.13 14.28 9.57 13.22C9.87 13.08 10.17 12.93 10.46 12.76C10.52 12.72 10.57 12.69 10.61 12.66C10.93 12.84 11.24 13.04 11.53 13.27C11.89 13.55 12.17 13.85 12.34 14.14C12.36 14.16 12.37 14.17 12.38 14.19C12.4 14.2 12.42 14.22 12.43 14.23C12.45 14.24 12.47 14.25 12.49 14.26C12.51 14.27 12.53 14.28 12.55 14.28C12.57 14.29 12.59 14.29 12.61 14.29C12.63 14.29 12.66 14.29 12.68 14.29C12.7 14.28 12.72 14.28 12.74 14.27C12.76 14.26 12.78 14.26 12.8 14.24C12.82 14.23 12.83 14.22 12.85 14.21C12.87 14.19 12.88 14.18 12.89 14.16C12.91 14.14 12.92 14.12 12.93 14.1C12.94 14.08 12.94 14.06 12.95 14.04C12.95 14.02 12.96 14 12.96 13.98C12.96 13.96 12.96 13.94 12.96 13.92C12.95 13.89 12.95 13.87 12.94 13.85C12.94 13.83 12.93 13.81 12.92 13.79C12.69 13.42 12.36 13.07 11.94 12.74C11.68 12.54 11.4 12.35 11.12 12.18C10.99 12.11 10.87 12.04 10.74 11.97C10.71 11.96 10.68 11.95 10.65 11.94C10.62 11.94 10.59 11.94 10.56 11.94C10.53 11.94 10.5 11.95 10.47 11.96C10.44 11.97 10.41 11.99 10.39 12C10.35 12.04 10.25 12.1 10.11 12.19C9.88 12.33 9.6 12.47 9.3 12.6C7.1 13.56 4.66 13.52 2.21 11.79C1.9 9.52 2.31 7.22 3.19 5.03C3.41 4.49 3.65 3.96 3.93 3.44C4.02 3.27 4.12 3.1 4.22 2.93C4.41 2.82 4.6 2.73 4.8 2.65C5.29 2.44 5.81 2.32 6.34 2.32C6.84 2.32 7.19 2.42 7.4 2.56C7.51 2.64 7.55 2.69 7.56 2.71C7.57 2.74 7.58 2.76 7.6 2.78L8.3 3.79L7.22 4.66L6.48 3.96C6.44 3.92 6.39 3.89 6.33 3.88L5.68 3.72C5.6 3.71 5.53 3.71 5.47 3.74L4.89 4C4.84 4.02 4.79 4.06 4.76 4.1C4.73 4.15 4.7 4.2 4.69 4.25C4.69 4.28 4.68 4.33 4.67 4.4C4.66 4.52 4.64 4.66 4.63 4.81C4.54 5.71 4.52 6.67 4.64 7.56C4.74 8.31 4.93 8.97 5.22 9.51C5.23 9.54 5.24 9.56 5.26 9.57C5.27 9.59 5.29 9.61 5.31 9.62C5.33 9.64 5.35 9.65 5.37 9.66C5.39 9.67 5.41 9.68 5.44 9.68C5.46 9.69 5.48 9.69 5.51 9.69C5.53 9.69 5.55 9.69 5.58 9.68C5.6 9.68 5.62 9.67 5.64 9.66C5.67 9.65 5.69 9.64 5.71 9.63C7 8.7 7.97 8.66 9.18 9.62C9.2 9.64 9.23 9.66 9.27 9.67C9.3 9.68 9.33 9.69 9.37 9.69C9.4 9.69 9.44 9.69 9.47 9.68C9.51 9.67 9.54 9.66 9.57 9.64C10.5 9.03 11.48 8.8 12.43 8.88C12.8 8.91 13.15 8.99 13.44 9.09C13.67 9.18 13.84 9.28 13.89 9.33C13.91 9.35 13.93 9.36 13.94 9.38C13.96 9.39 13.98 9.4 14 9.41C14.02 9.42 14.04 9.42 14.06 9.43C14.08 9.43 14.1 9.44 14.13 9.44C14.15 9.44 14.17 9.43 14.19 9.43C14.21 9.43 14.23 9.42 14.25 9.41C14.27 9.41 14.29 9.4 14.31 9.38C14.33 9.37 14.35 9.36 14.36 9.34C14.38 9.33 14.39 9.31 14.41 9.3C14.42 9.28 14.43 9.26 14.44 9.24C14.45 9.22 14.45 9.2 14.46 9.18C14.46 9.16 14.47 9.14 14.47 9.11C14.47 9.09 14.47 9.07 14.46 9.05C14.46 9.03 14.45 9.01 14.45 8.99C14.44 8.97 14.43 8.95 14.42 8.93C14.41 8.91 14.39 8.89 14.38 8.88C14.09 8.57 13.32 8.28 12.49 8.21C11.46 8.13 10.4 8.35 9.4 8.95C8.13 8.03 6.97 8.03 5.65 8.86Z" fill="#999999" fill-opacity="1.000000" fill-rule="nonzero"/>
	</g>
</svg>
