<svg width="33.000000" height="33.000000" viewBox="0 0 33 33" fill="none" xmlns="http://www.w3.org/2000/svg" xmlns:xlink="http://www.w3.org/1999/xlink">
	<desc>
			Created with Pixso.
	</desc>
	<defs/>
	<path id="矢量 32" d="M0 16.5C0 7.38 7.38 0 16.5 0C25.61 0 33 7.38 33 16.5C33 25.61 25.61 33 16.5 33C7.38 33 0 25.61 0 16.5Z" fill="#FF7B14" fill-opacity="1.000000" fill-rule="evenodd"/>
	<path id="矢量 32" d="M17.59 25.01C17.59 25.01 17.58 25.01 17.58 25.01C17.41 25 17.28 24.89 17.23 24.73L15.3 17.71L8.25 15.75C8.09 15.7 7.98 15.56 7.97 15.4C7.96 15.24 8.06 15.09 8.21 15.03L23.34 9.15C23.48 9.09 23.64 9.13 23.75 9.23C23.85 9.34 23.89 9.49 23.83 9.63L17.94 24.77C17.89 24.91 17.75 25.01 17.59 25.01ZM9.53 15.32L15.71 17.05C15.84 17.08 15.93 17.18 15.97 17.31L17.66 23.44L22.82 10.16L9.53 15.32Z" fill="#FFFFFF" fill-opacity="1.000000" fill-rule="nonzero"/>
</svg>
