<svg width="16.000000" height="16.000000" viewBox="0 0 16 16" fill="none" xmlns="http://www.w3.org/2000/svg" xmlns:xlink="http://www.w3.org/1999/xlink">
	<desc>
			Created with Pixso.
	</desc>
	<defs>
		<clipPath id="clip227_781">
			<rect id="svg" width="16.000000" height="16.000000" fill="white" fill-opacity="0"/>
		</clipPath>
	</defs>
	<g clip-path="url(#clip227_781)">
		<path id="path" d="M13.39 2.56C11.94 1.12 10.03 0.33 7.99 0.33C5.95 0.33 4.03 1.12 2.59 2.56C1.15 4.01 0.35 5.92 0.35 7.96C0.35 10 1.15 11.92 2.59 13.36C4.03 14.8 5.95 15.6 7.99 15.6C10.03 15.6 11.94 14.8 13.39 13.36C14.83 11.92 15.62 10 15.62 7.96C15.62 5.92 14.83 4.01 13.39 2.56ZM7.99 14.9C4.16 14.9 1.05 11.79 1.05 7.96C1.05 4.14 4.16 1.03 7.99 1.03C11.81 1.03 14.92 4.14 14.92 7.96C14.92 11.79 11.81 14.9 7.99 14.9Z" fill="#999999" fill-opacity="1.000000" fill-rule="nonzero"/>
		<path id="path" d="M7.82 3.8L7.12 3.8L7.12 8.83L12.15 8.83L12.15 8.13L7.82 8.13L7.82 3.8Z" fill="#999999" fill-opacity="1.000000" fill-rule="nonzero"/>
	</g>
</svg>
