<svg width="16.000000" height="16.000000" viewBox="0 0 16 16" fill="none" xmlns="http://www.w3.org/2000/svg" xmlns:xlink="http://www.w3.org/1999/xlink">
	<desc>
			Created with Pixso.
	</desc>
	<defs>
		<clipPath id="clip227_785">
			<rect id="svg" width="16.000000" height="16.000000" fill="white" fill-opacity="0"/>
		</clipPath>
	</defs>
	<g clip-path="url(#clip227_785)">
		<path id="path" d="M11.51 14.42C10.88 14.42 10.17 14.31 9.42 14.07C7.62 13.51 5.85 12.34 4.44 10.78C2.31 8.44 1.29 6.1 1.5 4.02C1.55 3.51 1.73 2.85 2.5 2.32C3.1 1.85 3.77 1.56 4.31 1.58C4.86 1.59 5.06 1.78 5.63 2.62C6.5 3.83 6.57 4.44 6.53 4.78C6.48 5.35 6.16 5.6 5.88 5.82C5.81 5.87 5.74 5.92 5.68 5.98C5.34 6.42 4.92 7.02 6.72 8.88C8.26 10.36 9.09 10.54 9.44 10.52C9.71 10.5 9.82 10.35 9.86 10.31L9.87 10.3C10.44 9.49 10.64 9.29 11.19 9.21C11.73 9.13 12 9.29 13.13 10.01C14.16 10.66 14.63 11.09 14.52 11.76C14.48 12.5 13.92 13.51 13.28 13.95C12.84 14.26 12.23 14.42 11.51 14.42ZM4.26 2.22C3.97 2.22 3.45 2.38 2.88 2.84L2.87 2.85C2.35 3.2 2.2 3.6 2.14 4.08C1.96 5.97 2.92 8.13 4.92 10.34C7.09 12.73 9.78 13.77 11.53 13.77C12.11 13.77 12.58 13.65 12.9 13.43C13.42 13.06 13.85 12.21 13.86 11.73L13.87 11.68C13.91 11.49 13.94 11.3 12.78 10.57C11.67 9.87 11.55 9.82 11.28 9.86C11.01 9.91 10.95 9.91 10.4 10.69L10.39 10.71C10.11 11.06 9.75 11.15 9.5 11.18C8.67 11.24 7.59 10.63 6.27 9.37L6.26 9.36C4.2 7.24 4.63 6.29 5.19 5.57L5.23 5.53C5.32 5.45 5.4 5.37 5.49 5.31C5.74 5.11 5.86 5 5.9 4.72C5.93 4.35 5.66 3.77 5.11 3L5.1 2.99C4.58 2.23 4.53 2.23 4.3 2.23C4.28 2.22 4.27 2.22 4.26 2.22Z" fill="#999999" fill-opacity="1.000000" fill-rule="nonzero"/>
	</g>
</svg>
