<svg width="14.000000" height="14.000000" viewBox="0 0 14 14" fill="none" xmlns="http://www.w3.org/2000/svg" xmlns:xlink="http://www.w3.org/1999/xlink">
	<desc>
			Created with Pixso.
	</desc>
	<defs>
		<clipPath id="clip219_1552">
			<rect id="svg" width="14.000000" height="14.000000" fill="white" fill-opacity="0"/>
		</clipPath>
	</defs>
	<g clip-path="url(#clip219_1552)">
		<path id="path" d="M6.09 2.42C7.98 2.43 9.55 3.85 9.73 5.72C9.92 7.6 8.66 9.3 6.81 9.68C4.97 10.05 3.14 8.96 2.59 7.17C2.03 5.37 2.93 3.44 4.66 2.71C5.12 2.52 5.6 2.42 6.09 2.42ZM6.09 1.57C3.6 1.57 1.57 3.6 1.57 6.1C1.57 8.6 3.6 10.62 6.09 10.62C8.59 10.62 10.62 8.6 10.62 6.1C10.62 3.6 8.59 1.57 6.09 1.57ZM11.99 12.42C11.93 12.42 11.88 12.41 11.83 12.39C11.78 12.37 11.73 12.34 11.69 12.3L9.54 10.15C9.38 9.98 9.38 9.72 9.55 9.55C9.71 9.39 9.98 9.39 10.14 9.55L12.29 11.7C12.32 11.73 12.35 11.76 12.37 11.8C12.38 11.83 12.4 11.87 12.41 11.91C12.42 11.95 12.42 12 12.41 12.04C12.41 12.08 12.4 12.12 12.38 12.16C12.37 12.2 12.35 12.23 12.32 12.27C12.29 12.3 12.26 12.33 12.23 12.35C12.19 12.37 12.15 12.39 12.11 12.4C12.07 12.41 12.03 12.42 11.99 12.42Z" fill="#BCBABA" fill-opacity="1.000000" fill-rule="nonzero"/>
	</g>
</svg>
