<svg width="14.000000" height="14.000000" viewBox="0 0 14 14" fill="none" xmlns="http://www.w3.org/2000/svg" xmlns:xlink="http://www.w3.org/1999/xlink">
	<desc>
			Created with Pixso.
	</desc>
	<defs>
		<clipPath id="clip148_53">
			<rect id="svg" rx="0.000000" width="13.000001" height="13.000000" transform="translate(0.500000 0.500000)" fill="white" fill-opacity="0"/>
		</clipPath>
	</defs>
	<rect id="svg" rx="0.000000" width="13.000001" height="13.000000" transform="translate(0.500000 0.500000)" fill="#FFFFFF" fill-opacity="0"/>
	<g clip-path="url(#clip148_53)">
		<path id="path" d="M7 0C3.81 0 1.21 2.59 1.21 5.78C1.21 8.9 6.56 13.71 6.79 13.92C6.85 13.97 6.92 14 6.99 14C7.07 14 7.14 13.97 7.2 13.92C7.43 13.71 12.78 8.9 12.78 5.78C12.78 2.59 10.18 0 7 0ZM7 13.28C6.01 12.37 1.82 8.31 1.82 5.78C1.82 2.92 4.14 0.6 7 0.6C9.85 0.6 12.17 2.92 12.17 5.78C12.17 8.31 7.98 12.37 7 13.28Z" fill="#000000" fill-opacity="1.000000" fill-rule="nonzero"/>
		<path id="path" d="M7 2.73C5.32 2.73 3.95 4.1 3.95 5.78C3.95 7.45 5.32 8.82 7 8.82C8.67 8.82 10.04 7.46 10.04 5.78C10.04 4.1 8.67 2.73 7 2.73ZM7 8.21C5.65 8.21 4.56 7.12 4.56 5.78C4.56 4.43 5.65 3.34 7 3.34C8.34 3.34 9.43 4.44 9.43 5.78C9.43 7.12 8.34 8.21 7 8.21Z" fill="#000000" fill-opacity="1.000000" fill-rule="nonzero"/>
	</g>
	<rect id="svg" rx="0.000000" width="13.000001" height="13.000000" transform="translate(0.500000 0.500000)" stroke="#000000" stroke-opacity="0" stroke-width="1.000000"/>
</svg>
