<svg width="45.877655" height="46.000000" viewBox="0 0 45.8777 46" fill="none" xmlns="http://www.w3.org/2000/svg" xmlns:xlink="http://www.w3.org/1999/xlink">
	<desc>
			Created with Pixso.
	</desc>
	<defs>
		<clipPath id="clip187_823">
			<rect id="s" width="45.877659" height="46.000000" fill="white" fill-opacity="0"/>
		</clipPath>
	</defs>
	<g clip-path="url(#clip187_823)">
		<path id="path" d="M37.65 46L37.65 41.87L33.45 41.87L33.45 46L37.65 46Z" fill="#FF7000" fill-opacity="1.000000" fill-rule="nonzero"/>
		<path id="path" d="M43.96 46C45.01 46 45.87 45.13 45.87 44.08L45.87 41.78L41.76 41.78L41.76 46L43.96 46Z" fill="#FF7000" fill-opacity="1.000000" fill-rule="nonzero"/>
		<path id="path" d="M16.63 4.21L16.63 16.77L4.2 16.77L4.2 4.21L16.63 4.21ZM18.92 0L1.91 0C0.86 0 0 0.86 0 1.91L0 18.97C0 20.02 0.86 20.89 1.91 20.89L18.92 20.89C19.97 20.89 20.83 20.02 20.83 18.97L20.83 1.91C20.83 0.86 19.97 0 18.92 0Z" fill="#FF7000" fill-opacity="1.000000" fill-rule="nonzero"/>
		<path id="path" d="M8.31 10.44C8.31 11.02 8.5 11.5 8.88 11.88C9.27 12.26 9.84 12.45 10.32 12.45C10.89 12.45 11.37 12.26 11.75 11.88C12.13 11.5 12.32 10.92 12.32 10.44C12.32 9.87 12.13 9.39 11.75 9C11.37 8.62 10.8 8.43 10.32 8.43C9.74 8.43 9.27 8.62 8.88 9C8.5 9.29 8.31 9.87 8.31 10.44Z" fill="#FF7000" fill-opacity="1.000000" fill-rule="nonzero"/>
		<path id="path" d="M41.67 4.21L41.67 16.77L29.24 16.77L29.24 4.21L41.67 4.21ZM43.96 0L26.95 0C25.9 0 25.04 0.86 25.04 1.91L25.04 18.97C25.04 20.02 25.9 20.89 26.95 20.89L43.96 20.89C45.01 20.89 45.87 20.02 45.87 18.97L45.87 1.91C45.87 0.86 45.01 0 43.96 0Z" fill="#FF7000" fill-opacity="1.000000" fill-rule="nonzero"/>
		<path id="path" d="M33.35 10.44C33.35 11.02 33.54 11.5 33.93 11.88C34.31 12.26 34.88 12.45 35.36 12.45C35.93 12.45 36.41 12.26 36.79 11.88C37.18 11.5 37.37 10.92 37.37 10.44C37.37 9.87 37.18 9.39 36.79 9C36.41 8.62 35.84 8.43 35.36 8.43C34.79 8.43 34.31 8.62 33.93 9C33.64 9.29 33.35 9.87 33.35 10.44Z" fill="#FF7000" fill-opacity="1.000000" fill-rule="nonzero"/>
		<path id="path" d="M16.63 29.32L16.63 41.87L4.2 41.87L4.2 29.32L16.63 29.32ZM18.92 25.1L1.91 25.1C0.86 25.1 0 25.97 0 27.02L0 44.08C0 45.13 0.86 46 1.91 46L18.92 46C19.97 46 20.83 45.13 20.83 44.08L20.83 27.02C20.83 25.97 19.97 25.1 18.92 25.1Z" fill="#FF7000" fill-opacity="1.000000" fill-rule="nonzero"/>
		<path id="path" d="M8.31 35.55C8.31 36.12 8.5 36.6 8.88 36.99C9.27 37.37 9.84 37.56 10.32 37.56C10.89 37.56 11.37 37.37 11.75 36.99C12.13 36.6 12.32 36.03 12.32 35.55C12.32 34.97 12.13 34.5 11.75 34.11C11.37 33.73 10.8 33.54 10.32 33.54C9.74 33.54 9.27 33.73 8.88 34.11C8.5 34.5 8.31 35.07 8.31 35.55Z" fill="#FF7000" fill-opacity="1.000000" fill-rule="nonzero"/>
		<path id="path" d="M43.96 25.1L41.67 25.1L41.67 33.44L37.46 33.44L37.46 25.1L26.95 25.1C25.9 25.1 25.04 25.97 25.04 27.02L25.04 44.08C25.04 45.13 25.9 46 26.95 46L29.24 46L29.24 41.78L29.24 37.56L29.24 33.35L33.45 33.35L33.45 37.56L45.87 37.56L45.87 27.02C45.87 25.97 45.01 25.1 43.96 25.1Z" fill="#FF7000" fill-opacity="1.000000" fill-rule="nonzero"/>
	</g>
</svg>
